<mxfile host="app.diagrams.net" modified="2021-02-12T20:09:47.394Z" agent="5.0 (Windows NT 10.0; Win64; x64) AppleWebKit/537.36 (KHTML, like Gecko) Chrome/86.0.4240.193 Safari/537.36" etag="qzx6Mv6Da7mdIL-0v4FS" version="14.3.0" type="github">
  <diagram id="yxrKdYC5_83nkW0BYLtQ" name="Page-1">
    <mxGraphModel dx="1184" dy="739" grid="1" gridSize="10" guides="1" tooltips="1" connect="1" arrows="1" fold="1" page="1" pageScale="1" pageWidth="850" pageHeight="1100" math="0" shadow="0">
      <root>
        <mxCell id="0" />
        <mxCell id="1" parent="0" />
        <mxCell id="d2i7WIATGIJlflpyL3Zu-9" value="" style="edgeStyle=orthogonalEdgeStyle;rounded=0;orthogonalLoop=1;jettySize=auto;html=1;" edge="1" parent="1" source="d2i7WIATGIJlflpyL3Zu-1" target="d2i7WIATGIJlflpyL3Zu-8">
          <mxGeometry relative="1" as="geometry" />
        </mxCell>
        <mxCell id="d2i7WIATGIJlflpyL3Zu-1" value="t-test/ANOVA on a small scale study" style="rounded=0;whiteSpace=wrap;html=1;" vertex="1" parent="1">
          <mxGeometry x="80" y="360" width="130" height="40" as="geometry" />
        </mxCell>
        <mxCell id="d2i7WIATGIJlflpyL3Zu-2" value="A small scale study (10 - 15 subjects) to test if difference of accuracy between Floyer and CPs are significant&amp;nbsp;" style="text;html=1;strokeColor=none;fillColor=none;align=center;verticalAlign=middle;whiteSpace=wrap;rounded=0;" vertex="1" parent="1">
          <mxGeometry x="55" y="430" width="180" height="20" as="geometry" />
        </mxCell>
        <mxCell id="d2i7WIATGIJlflpyL3Zu-5" value="&lt;h1&gt;Competitor Product Study&lt;/h1&gt;&lt;p&gt;Statistical approach to file claims against Floyer vs competitor product (CP) (e.g. Fitbit, AppleWatch, Garmin etc.)&amp;nbsp;&lt;/p&gt;" style="text;html=1;strokeColor=none;fillColor=none;spacing=5;spacingTop=-20;whiteSpace=wrap;overflow=hidden;rounded=0;" vertex="1" parent="1">
          <mxGeometry x="10" y="10" width="320" height="120" as="geometry" />
        </mxCell>
        <mxCell id="d2i7WIATGIJlflpyL3Zu-11" value="" style="edgeStyle=orthogonalEdgeStyle;rounded=0;orthogonalLoop=1;jettySize=auto;html=1;" edge="1" parent="1" source="d2i7WIATGIJlflpyL3Zu-12" target="d2i7WIATGIJlflpyL3Zu-10">
          <mxGeometry relative="1" as="geometry">
            <Array as="points">
              <mxPoint x="395" y="70" />
            </Array>
          </mxGeometry>
        </mxCell>
        <mxCell id="d2i7WIATGIJlflpyL3Zu-24" value="Margin is larger than a &lt;br&gt;predetermined threshold" style="edgeLabel;html=1;align=center;verticalAlign=middle;resizable=0;points=[];" vertex="1" connectable="0" parent="d2i7WIATGIJlflpyL3Zu-11">
          <mxGeometry x="-0.2741" y="3" relative="1" as="geometry">
            <mxPoint as="offset" />
          </mxGeometry>
        </mxCell>
        <mxCell id="d2i7WIATGIJlflpyL3Zu-15" value="" style="edgeStyle=orthogonalEdgeStyle;rounded=0;orthogonalLoop=1;jettySize=auto;html=1;" edge="1" parent="1" source="d2i7WIATGIJlflpyL3Zu-8" target="d2i7WIATGIJlflpyL3Zu-14">
          <mxGeometry relative="1" as="geometry" />
        </mxCell>
        <mxCell id="d2i7WIATGIJlflpyL3Zu-28" value="No difference" style="edgeLabel;html=1;align=center;verticalAlign=middle;resizable=0;points=[];" vertex="1" connectable="0" parent="d2i7WIATGIJlflpyL3Zu-15">
          <mxGeometry x="-0.0287" relative="1" as="geometry">
            <mxPoint as="offset" />
          </mxGeometry>
        </mxCell>
        <mxCell id="d2i7WIATGIJlflpyL3Zu-30" value="" style="edgeStyle=orthogonalEdgeStyle;rounded=0;orthogonalLoop=1;jettySize=auto;html=1;" edge="1" parent="1" source="d2i7WIATGIJlflpyL3Zu-8" target="d2i7WIATGIJlflpyL3Zu-29">
          <mxGeometry relative="1" as="geometry" />
        </mxCell>
        <mxCell id="d2i7WIATGIJlflpyL3Zu-31" value="More accurate" style="edgeLabel;html=1;align=center;verticalAlign=middle;resizable=0;points=[];" vertex="1" connectable="0" parent="d2i7WIATGIJlflpyL3Zu-30">
          <mxGeometry x="-0.0839" relative="1" as="geometry">
            <mxPoint as="offset" />
          </mxGeometry>
        </mxCell>
        <mxCell id="d2i7WIATGIJlflpyL3Zu-8" value="Compare to CP, &lt;br&gt;Floyer device is:" style="rhombus;whiteSpace=wrap;html=1;rounded=0;" vertex="1" parent="1">
          <mxGeometry x="320" y="340" width="150" height="80" as="geometry" />
        </mxCell>
        <mxCell id="d2i7WIATGIJlflpyL3Zu-10" value="Study Exit" style="whiteSpace=wrap;html=1;rounded=0;" vertex="1" parent="1">
          <mxGeometry x="480" y="40" width="120" height="60" as="geometry" />
        </mxCell>
        <mxCell id="d2i7WIATGIJlflpyL3Zu-13" value="" style="edgeStyle=orthogonalEdgeStyle;rounded=0;orthogonalLoop=1;jettySize=auto;html=1;" edge="1" parent="1" source="d2i7WIATGIJlflpyL3Zu-8" target="d2i7WIATGIJlflpyL3Zu-12">
          <mxGeometry relative="1" as="geometry">
            <mxPoint x="395" y="340" as="sourcePoint" />
            <mxPoint x="395" y="250" as="targetPoint" />
          </mxGeometry>
        </mxCell>
        <mxCell id="d2i7WIATGIJlflpyL3Zu-21" value="" style="edgeStyle=orthogonalEdgeStyle;rounded=0;orthogonalLoop=1;jettySize=auto;html=1;entryX=0;entryY=0.5;entryDx=0;entryDy=0;" edge="1" parent="1" source="d2i7WIATGIJlflpyL3Zu-12" target="d2i7WIATGIJlflpyL3Zu-20">
          <mxGeometry relative="1" as="geometry" />
        </mxCell>
        <mxCell id="d2i7WIATGIJlflpyL3Zu-12" value="&amp;nbsp;Less accurate" style="text;html=1;align=center;verticalAlign=middle;whiteSpace=wrap;rounded=0;spacingTop=0;spacingBottom=0;" vertex="1" parent="1">
          <mxGeometry x="300" y="210" width="190" height="30" as="geometry" />
        </mxCell>
        <mxCell id="d2i7WIATGIJlflpyL3Zu-14" value="Equivalence Study" style="whiteSpace=wrap;html=1;rounded=0;" vertex="1" parent="1">
          <mxGeometry x="620" y="350" width="120" height="60" as="geometry" />
        </mxCell>
        <mxCell id="d2i7WIATGIJlflpyL3Zu-20" value="Non-inferiority Study" style="whiteSpace=wrap;html=1;rounded=0;" vertex="1" parent="1">
          <mxGeometry x="570" y="195" width="120" height="60" as="geometry" />
        </mxCell>
        <mxCell id="d2i7WIATGIJlflpyL3Zu-29" value="Superiority Study" style="whiteSpace=wrap;html=1;rounded=0;" vertex="1" parent="1">
          <mxGeometry x="335" y="490" width="120" height="60" as="geometry" />
        </mxCell>
        <mxCell id="d2i7WIATGIJlflpyL3Zu-32" value="" style="shape=image;verticalLabelPosition=bottom;labelBackgroundColor=#ffffff;verticalAlign=top;aspect=fixed;imageAspect=0;image=data:image/png,iVBORw0KGgoAAAANSUhEUgAAAn8AAAHDCAYAAABVrnxoAAAgAElEQVR4Aey9v2sbS/j2vX/GtgI3hhRxZ8G3iSBFBCmOwMURpDDiFEakOAjDG0QaI1IYkSKI8BCEi8CahzzIRUDmISDzQkAuAjIvB5QioBQpVLjYIsUWKa6X2Z1Zzf7UrizJsn0dyPFqf8zc87lnd66dmXvWAP8jARIgARIgARIgARJ4MASMB1NSFpQESIAESIAESIAESAAUf6wEJEACJEACJEACJPCACFD8PSBns6gkQAIkQAIkQAIkQPHHOkACJEACJEACJEACD4gAxd8DcjaLSgIkQAIkQAIkQAIUf6wDJEACJEACJEACJPCACFD8PSBns6gkQAIkQAIkQAIkQPHHOkACJEACJEACJEACD4gAxd8DcjaLSgIkQAIkQAIkQAIUf2l1wJlieNpC9ZGJ1mXaies+ZmN82kD5kQnDMFB4Vkfnq71WI+zvfXQOyijsWZiuKWfn1xDWURXbZgvDVeTpjNB+YsJ80sbIWUUGDzjNTbiXNsW/m2LHA66OLDoJPHQCCeJvCmvPcIWFEBfz/zVX0xjfpnd+9NE5bqBseuXfHPE3gfWigOrHiUvH/tpC0fVREe2rdQCzMTxpo7lf9OrFmsTf5HMH7X/LMN2yUvytw9NLy2NT7qVNEV2bYsfSHMyESIAE7hqBBPEni+FM0FUi8Cimr8WxMfpQhWlUYP26a0XPZu/w9WaJP/tzHabRwEDrmZp8qqFgltBZi/iT3H5aqAghtibx5+U6RHMp4m+C7klMfc5WJXjWggQ27V5asBi8jARIgATuPIF08QdgelrxenjixJ9bfAeDw+r9FX9HmyT+bPQPhD0r6vnKU51/3Y74ay1D/P3oopxYn/NA4Ll5CAw36l7KYznPJQESIIH7RWAJ4g/ApYXefe3526gGa4SWOwxN8bd4v90UvRcmDIq/tT/JKP7WjpwZkgAJkEAsgeWIv9ik78fOzWqwhlhKz9cyXHMne/4cjN1pCgbF3zLqQM40Nuteymk8TycBEiCBe0TgRuLP+dJNHO61/+uhtV9EwR2mM7H9vI7ORTQu1P4+8CI4X4ioUQejdxUUDBPb//TcKFLnZyjCczpA++9td+K/+aiKzpWc/PZnisFxDcUtMSxaQPmwDy8kAoASKq4twYZfNUheUEu0R00djwR8/B6jd6TyM2BsFVE56GKUM+g2Gycl+rwh6EAATsYerOlFB/XnHjfBp7jXgPVf2Fgbw3d1P4rYMLdR2m+h/zOmxiumCXP+0vLzpxJIf8zYhsoZKZs6HvUT5vpjiv6/JRkwonOczVeN1DVV7Osx+icNVB/J6Q2/x7AOy9gWvbBbZTQ++zVNXeH9nQ7ciGj3PFX39L8J7PREnO8WGspvbh1rovmiHQqwyui335Ng9Lp7z4joaQPC19V3I6ippNOLNmq7BXfKR+FZI1QHHEwvLbT+3kb1VNzTNobHs3TKhxbGv/VSeNuJ95I4bAumFXn/5o9gz8Ip0b9fm3OD2ipuOVWZvGj7iuQj6kD93RDhu0mdHf6baAecYBT/bgX1101U3y7ezx3Om79JgARIQBBYXPw5Iuo0bq6fg8lJFeZuHdaVfBxej2C9FNGhJkpvhrKBcTA668F6IyM49ywMPzVQP6zJ6NU6/tf/6aH3TgSUePPc+lcd1A866F0M0DsWIlE0WnX0f47R/aeKxkkPg7MOak+8JVDKJ8FGefy+HD9/8WfXC16ImUsX32CN0N4VwQ4djGURp58b2BH2POvORGdqHcvKSU8kRfzopwW2HQzflGDuNtH/JZv26wGajwXTIlrfVHNvo39gwnjcQF9qdPu/jsfFbAYCTNzkE8Vfxvz+jNF55omwmfjzDJ+cJM0zTSp/Dn8ou0PCcnwerGt+c/u9j95pS0Z9V2B97aNx0ED3bIDBmdpfRvdHADrw00LVNFB81cf0D4A/U/RfyQjpxy0MFfbQZYGf133UzSJaF7KSOSoNXfxm9Jsox1nHtUm8PLTOR+gc1NFxy9FGxX1pMlH/PMH4Qw3Vwy56Fz10/pGCWdXr32P0P3bRfO7dY5XTEfovi6gettF+XUPJnZZgwNhtYxQoDBB/L8FjtVVG+1I9L4Zou+kXUD+X+0JpBX5m4JToX3dec9WPntfT9YKrDJgvLO2e9qLty2+HsF2/2hi+9Z5hhZf9uQIwzQ43v90WBteeFc6vPpriOROqq7qN3CYBEiCBRQhkF396j4W/Pes1UZk738TSIyYaX8Kt2wRdt7EXDYz2QHcGaIj0HpfR/iqvmY4w/KHOURGeVXS/q31ebsMjrwEqvuxhIh7E6j/VwP+lP7TF3MRWvPhDkqhIaLBkOsHegBHarqDKtuxNbk5u2ZLtVEUP//UasLA4cTA6Fo16AQ3VuCpmgYZGCAsh0Cqwwr1/6vxQ71Xm/JDAVhQgr5/y+EPZHSinoqbqmi6uxDHFoYDaydjvHRNHJh9Kbp0K1gUbvX3BrY6+XmWdAZquODLR+qbyTP47/VSF8T8djAOniPtIsy+2PMreqN9UxG31wzgoVC5b3kvWbh29gK/Vsk/BtJwvDbfcO3uhnmEpeoXADL98xYs/T7jXznRQAH50URLPhbgXjwAPIBMn95p4/05Pu9GXG1WO3RaGWi/m6G0Rxn4vyA4TdJ8Kf5toXoSfeyFjE+0Qc1ENFN8HvS04MDgpjiH3kQAJ3IRAdvEXbixFT8ZhPTTsqxq94FIkykD7rOaJL9WL4B6QgiYs1NRFKcJMDR8GG15xYYJIyisqkgTKDwsVUxNOrq1aIzk3+GURTinl8lmFN6TgTmSrne8M0dwyUQo1PvENtjaUHhB/OfJLYitMyuunPP6IFUuKQ0K98W2NvuwoWyty3UUvpXiRAYjIeCESjEyLhgshbRg7aHwOTpeYnlqzYd+cfsvnT1mauKCnWMHtnT85kT3sgbqRIPZd0VlFL1hE7R6eL5QzcXJNS/avZ7n6v+xJFj3jl7qYG7oBV9VPEWP9Xk3zTbi/U6Wp/42zQwp2refdu2IK69Tvh9YT4TYJkAAJLExgcfEnsry0guJP9eLFDJ+6FqqG19Af9vJBGGooZiWKe1B6R29N/M2Mg2jQ1fwnb3g6RiAEzheXyN7OXJxEIskswlm4v+0+6qL3JCzcY08O7vS/4CF7ecNDs/48St1vOfNLFCJ5xV/A9Dn+UHUwlkkyX8/WGN/G2qrEX7QX2EtnvqBxiyQXAxZisbDXgnUZFR2Boos+SvXllQS/JTJXXHR/ysRjr0kRf36vXah+x6Wj7mFRxqR/0Ze7UKkzc0r27yxFB8Mjb4pK9TQ4bcSv8ym2Zlv3Mt4O51tbDpsXUDmyMJzv7pnZ3CIBEiCBHARuJv7CGakGJPTQn52mHnp6Iyr3xTQ63nXqGm2oSyaoGo5o45BwTWxDLRJLON/v8YnrqVGfWNtGVTyof03kV1H0ss1KHthaiFO6nYH01Q+VzwsveEbtTvsrJvpXH22jfNBB/7uNQVyvj0hApa37Te3LmF+cGHBtW8BPYmjW++TdHH8oG1cq/hwMXokpCTuhr67IHt8MQ5kzH9kYnTT8uXTmk7hAHSCr3xKZKy66P6URsdekiT/1EhB6DsSl4+2LHymYMciylYVT8n2uchDD2eIlLjjPTx6VZY5OaVFXZ/2bYsf1CF0/MMlE6V/Ln1ecNXWeRwIkQALzCCxX/E17qLpvxcH5QTMj1ENP7xGR+2IaHe86dc0Gib/fQ7TEN2BfdLUHc45h34U4CRrJLGaMtS2VT6Zv4U7Q2y/AEIEhWo9DXIPt5hAnFnLllzAMKBLPK/7y+EPZvVLxB0DaZGgT+KfnTRSNjEEMmhvdzT9TDH0RqA9H5vNbLn9KG2KvySL+ngaDn+LSmXwUwT1hkRwufI7fiZxEGnPun4R5fn7u8qs2O8dZhnb9q2I25tghrpgOZyIwNO8wJkHuIgESIIFcBJYr/sTEZxnBGZnALcySPQLmq4E2aV4+CO+Q+PMCTUqhCM8c4m8hTgJghkYj4P7ZRPRAkI1/jo3+iRehqHpRw70acQ22e7kSUQG/Zc/PLU1Sr2JO8ZfLH8ruVYs/Ud3Pm6j9U0dZRtK6yx19DQU2+L6IbsQGInzvoCxesA4W81s+f3o2xV4jfVT6EBoaFZfIYI2wSIpLx7loJve0ibR+WuheRNnoe7Jw8s5Pu39Uz70urPVcvOkabsCOWY0GQLmnTmCdDEIXxf2Ms2MK64P+XPSuUysUxN+/cWlzHwmQAAnMJzBX/Hlv5gaMjEN5athE9HiM9LnS4tnpPuiLoaEw+SAM9RLMTI97UHpHlWDJPOyrIghD0Xr2VdtrUA29R9LLI9pgKZEX6q0QS5e4EX9y2Pe3owncWWnUVn5O4spkFird8F/FyDDLaH/ThMcfsURFxY9OVOUMinYb/Zd6gIIDR/lUiaiA+NM+BzgnP2GnipQN5zl6KwMGXocnuseVP6c/lN2HqqG1MVVL4KTw9aJkY4b0E4Sqc9lC8WU/tQ6EfRX+LXxXjoirMTr/MxN/ef2mzs80h1MaFHuNKrfPcWa9GxEb873v2HSggivEvMY2Bj9VBXNgX1moP4lZZmiWlbuVhZN3SVz9EUdS5vm5hwcYXHopeGUT6ztW0L6YwJGrDDjuclYl/37yzk76f5wdoh6Ho/IBfO+4S19R/CWx5H4SIIFFCKSLP2eC7p6ciG3W0fMbybSs1IPUQGG/i5Fcs8r+z0J910R4ErX9TQmvkDhRWaieDqOCbmAJChuD1zvechOvB4GlF5wfat2+8DWqoTFRfmWhL9YxO6ihfdmXX84wUf63jY5atFdbi66irRk4fifXa9utueuk9U7E+oQtNFzxt4PGxx7aR/Pm2eXjJHDYX5reWoLGDppq7TfFKfGvWJfMWxLHDRzYLaH0tOQu7Fs8Umsuil6qurfUh1lG87SP/mkb9YM2Wv94/q+87aF71PEFvX3uzY0yHjcx0DQlkC0/19yrtremo8xTrNFY329jeC6X5DHLaBx30Fdr6CXUhVz+UPPRzDJaZ31YR63ZpwkT0oczRMtdxsdAPbQkieqZMfa62nJD3rIdQiC4a09eDDDw/w0xntqZRKEn3MXyMiPYUhN5Q8ez3qlcfkuoz27dupB1K+xP7Rmg3wP+0LxRRP105K15J4Kf3KHt6H2OlLwd8fKl1gcMBFPMyplYvf3vj6dzcq9P8K8r1JPm+cHB5GN1Fp39eyTXIIwGqOj3U5q9QtC5vbeBZ5p8idmqoXsl64daG5LDvqk4eZAESCA/gQTxp3pTog84IzSJOynLyBce9lvohb4ooXoCAlF+Wk9S7HExXKd6bwINhdcrE3dNoGfwZx+NZ+LLBeKrIw25pplYwkEFCshWNjYPNe9wgv5h2V1k2nxURuPUW/ttelZDIfx1kSRAcn8WTrMev6g/Ij04sfmJyfCzL3cUdmton09CAkR8XUV+pWGriNqx98UCLwLRxPbfHYzkemdzGSNLfp6hk88Nb1jU3Eb5UK7XKJb/eFRF63SIqRI9p3LhZ93n/tBtPn+IPMVixOajGrrfvQwSy6R6uPR83XtA9d7oPlE9g4KlXLw8cN3sXBG4EfvlFM1/09Maik9LKKkvScg6G/wyS0a/JZYj/l5375m4a9T9KY9V3vdnXzuJtU8LDgqwUPeSuhH0r6EUUBTPC+kbDUnsZhZOif4VLwOxwnPmK/F8Ctxn4sso2pdwxP3UOguu/xhrqOi7l1Md9Gee93yawtovui9m3leKvK+uuF9LCbxcJaXM/SRAAiSQnUCC+MueAM8kARKIIfDTQvt0DHs6xtDv9RM9gH1Y79po7BVg+uI15vpN36XEX+CzZ5tuNO0jARIgARIQBCj+WA9IYNkERNToX8FI10gWomc5Mqcxctbm7qD421zf0DISIAESmEOA4m8OIB4mgXwEZMT7sw7G+icHA4k4GL+vhwKfAids/o+vTXe+bfDLJptvNi0kARIgARJgzx/rAAksmcAskMcQcycP2+ieqYAPMeTbRP15Gc0vd3kil43hsfdN42Cgy5JRMjkSIAESIIGVEGDP30qwMtGHTkB88q99UIE/eV8EQzypoXHSx+Qu677YQKhQQMRDdz7LTwIkQAIbToDib8MdRPNIgARIgARIgARIYJkEKP6WSZNpkQAJkAAJkAAJkMCGE6D423AH0TwSIAESIAESIAESWCYBir9l0mRaJEACJEACJEACJLDhBCj+NtxBNI8ESIAESIAESIAElkmA4m+ZNJkWCZAACZAACZAACWw4AYq/DXcQzSMBEiABEiABEiCBZRKg+FsmTaZFAiRAAiRAAiRAAhtOgOJvwx1E80iABEiABEiABEhgmQQo/pZJk2mRAAmQAAmQAAmQwIYToPjbcAfRPBIgARIgARIgARJYJgGKv2XSZFokQAIkQAIkQAIksOEEKP423EE0jwRIgARIgARIgASWSYDib5k0mRYJkAAJkAAJkAAJbDgBir8NdxDNIwESIAESIAESIIFlEqD4WyZNpkUCJEACJEACJEACG06A4m/DHUTzSIAESIAESIAESGCZBCj+lkmTaZEACZAACZAACZDAhhOg+NtwB9E8EiABEiABEiABElgmAYq/ZdJkWiRAAiRAAiRAAiSw4QQo/jbcQTSPBEiABEiABEiABJZJgOJvmTSZ1kIEJuctVB+ZMAwDhd0aWueThdLhRSRAAiRAAneUwJ8J+kdVbJsGDKOA4n4L/Z93tCx3wGyKvzvgpPts4vRTFdt7LVjnAwzOOqg9ESLQRPWUAvA++51lIwESIIEZgSl6L7ZRObLQvxig966GkhCBZhUWBeAM0xK3KP6WCJNJ5SUwROtVH7Z+2e8hWrviza+BgaMf4DYJkAAJkMC9JHDZQvM80BLAuWyhaBgwDgdgU7B8r1P8LZ8pU8xK4KqH3o/oyZMPJRhGBdav6DHuIQESIAESuF8ERp96iI71TNB9asDYszC9X8XdiNJQ/G2EG2iETmB6WoFhtjDUd3KbBEiABEjgARGYwtozYB6xJViF0yn+VkGVad6AgIPBoYHi29EN0uClJEACJEACd5qAM0DDKKJ9dadLsbHG30nxNzwSc8KC/yqnyR3D9n89tN8Pg3PLNtYl98ewyVkLna/BeRxzS3fdQ223heHvuWeu9YTpRRet4y5G12nZ2hh/aucvc1qSSzm2qXbNL5x92UX703gz5/xMB+i8jhuuml+ulZ6xqXbNLfQEvaMOhkn3mD1E920P4znPBvvSQutNG73/5jx7flmohNoRw0gfcZiclNH4kjAD7c5yn+uYG54wx68JqdtnNRSPhpt57yfYfJd232Hxl36Tek5wMD5poPE5OJsgTjyGxaT6bb7o3d/5BrEPv6CoVhwMo4jWt4SHXkqNt780UX09yCi8Ra9fCa3L/PmkmHDDQzaGRxW05onY32N0DxvLW5rgj43xeRvVR1nqeUoR59m1rHxSTEg9lCF/53sXtX+6cxv91HyWfND+0kL93ejGDZP9n4XGXhEFV4QUUNxrwJonWlLKMs8u59cQ3cMyaikvyynJL3woezltDF5X0fySINxEff6nhu73ec8IB6O3FdQ+BZ/9aQXw2oW0+22C7rP4QLR53NPyjTt2W36KsyVt39L8Gs7k9wCNJ5vXCRA28y7/vtfib3JaReVD+OYXAsNE9cMIdsLzQ1xnioexWUc/6S30Lntd2f6ji9JuE/2fCSD8yNubDcMKnqUMb3CT00byQ1/ZvOa/Yikac783R7xOYL2ooBsTvJLfXBujjy3UnxZk73ZaYzQv9TS7lpnPPDvijufLX0T+lV5YMZPC49Je7T7XliVEIKrnjPmohNLTklzfTLx8LbbUUZpdzs8BOv9WUHTXUDOQNlKybHr5yynqbcpLoHguPcmwBEjOYcO54u9HF+UYv6dxz8vyNv2U19al+9U3YALr3yYG97nt9ct6exv3VvyJG7L4uI3ozLEprFfd5EbkpxoKMJO792/PX9Gcv3XQ+Jw85B29QNsjwusvEoQfHAxf73gC5FkKLy255M0JrL30Bs3+0kYr1EObnN66jshos9dpE44dDI+K2DmO1rSbWTlE0+0NWlT8ZbXrpvncrJRA1vy9+njTYaDRuwb6C94ubkl/WqiaNfRu2jBd91F/0kT/l3b//Zmi/6ooRX8538tERrsmHytu+msTf4uWUzyHU9Z4c742sTN3esgQLSN7wMA88Tf5UI4+LzNyz3uXrN1PeQ1ckV8BG4NjLu6c1x2LnH8/xZ8zROuxgfJJuNdPIJrAOk1qqEW3vjfsufP6jsw1uGwt/BbvfLHQTxhdcb40vN5PseTKEhbZFOmJBTt7Mcu3iCGTRo7hmUhF/xPZE9wx73jwbO2X13gYfyX3OImXjB0jZ0Ot5ZC86UW6zZuDlHR9drtulk9S/tn358hf9FQvOP1A2SOG8BdfQkhGH766+bpj9ud2wn01ewZVP2VVqTnsumytVfwtXk4v8Ct52o33YlZ8kzL0bvdRFy9QGZcKSRd/wi/N0NqjObirCpj175r9lNUsdd5q/GpjcNRAbwntjbKTf5MJ3EvxJyblGkYp35szHIzeyLfuuW+UyUDXfuQG4i/R1l89VN3hofTeusTr4w64QzBGpIds8rmO8kEXg4tB8J/42kd4Aei4dIWY3yuhntRr+HuE9vMS2t9iL56zc4SWyyF+no94kXBfFp7etGc0zowcoihyeR67bpJPJOMFduTJX/bEzh2GTzbjJuLPuWi6L0SJE/6Ts811JG+vTy67NkhUzCun+8Jo7CRGe3rrgab0wn5reS+wMUO1cQ5JFX9iyDck+nNxj8swbd8G+SnNzLhji/l1gv7LMuonoXZAfu2j+TmhlyLOAO7LRCBF/DmYXlpoH5RRkOvs2F/bqO2KuUgmtv/uYDQn6iqTBQuclHqTYoT2YzFfrxUz5JucmTtM7A6zFTcs4CDZZvfI0sWfmG/jfWfXXOocqwmsv0Sv6kxIufPpXOZxQSbJD/0IESnwIgJQ7k+cPB5JKLzDRv9A2JbQW3TVxo4YVnoT35Nsf++j498/DsanDZS3RHriu5Xt5KhG14w8oihk9xy7gmffIB+Z0DrLOXwt+OV9sZuVeHHxp+pCFb24DjlniuGp+EZ11etZvB6i/fe2Kz7MR2U0TrNHLLvrXBomWpczu5O35tgVvvCmomKd5VRTcJLE29em24tZiszr9grtcTSQdDyMJq1diQ75zuF+U0439VO4cPN+39ReLf259TfiV/FpN6/NmQUYivtc/oudvqVlyM2FCCSIPxvDMwvdl7In7KiP0bs66sfiu3t9f78ZehOKs8C7oTRHKocm/c3QRZ92k8IdGsre1e/arAc2pA0jxBXwtvctWfypSbxJQ7Q3Ka6qCyvpOQkLwBsLP6+ko7di3mO8+PN6HuImz08xOO2is6/unyFGb8soHzTRPm6g4grAeQFFi4uyZLvivLd4PsD6y5m3QQ+XeGHxJ3uu44bhnf/6sE6aKLu9xBVYV33Ud6toHLfR/Kckp09kD5oaHpkwsjZ4KXaFy+7+voGoWH855bQL7YUxUCa1WkFCz7v9ue4KiGwiGkhuV2KGfFO4L4XTDfwUYJThx1Ls1fKZX3/n+FVLi5urI5Ag/mSGsgfBeBKKvEmp+KszdZZy8k0KiN4k940h86rgWmDDblyAyCzfjdxapvhTb2SGifoKutnVcMDOqhZwVgLwtOcO9S7e4zfztGtz7AuJeFv1XmoSGxf1IvKkhu6VNrFfe9lIfoFaVJRlsGtWPAgBJ1bRjxM1gdPSfqyznLK3xzgIfRM6zT7t2MLiTw0hxtYFkYE3R80wdlA56gcCyvwXqkxzQ8XIRY77b65dWuHF5o1FxTrLqUYLkkYBVLBQPX7uslguxDQy9qCmiL+rNorhjo653G/I6cZ+Cvl97s8b2uunn6X+zvOrnxg3VkggXfypN6uIkFINRvNWPsGVJv5Gb2T3ccTmeIrLDmyI5jKFdbAEUal8kdRjGrM/UZREjXQDYfIGu0zOxTCXHCJ+VEb9XfpC2qrXZtGGO9bs8M6phaphYDuj/8OXB37/GaH9rJYwAVnNB0xpXJTPYmxR84WSP2On7rG80b4Z7AoUctF8tETWWU7ZKM7rGfPrWsx94Q8nBY6lc/ZfKhPFnxIPcb3Ecg6mEddLrHEUUvy0AjOHsM1iVyCHJYgK7/m7jnKqumkkvIyqHqQkcQiI6TzljMF7Se3K6K2YChSgOOtkWFV9WIKfghbP/7U5fp1vK8+4OYEbir+4B0DQKK9CrW/Y188vpsENWgZgFYEN4Ux+dFHVerrsb13Un3lruIm5QPWT0Zw15MIJhn4vpecvf7CLO1/PrKIrF6R1foglMIzUFdn9BjnlgRkqXb6faqj3rO/2/EXmAGZOzcbkwkJbfE0gcZ6xangWE3/we8+T7iHV8KWLkmiRMtgVuGjRfLREUsTf0supxN+cLzFo1gU2F+35y1J3kxtPQA3FG2nPJbFsSM6FbbPYFQCwBFGxvnKqupkkmrPVdee7hfbrLnpXcZM1Z3S8coXvtxHaIgBwdpq7lYX7jTgtwU8hk+f+vJG9IvXM9XeeX+eayhOWQGDl4m8JNkaSiL9JvdO8YwZSH7LuqasKbAiaOzmp+tFqzrcWSk9q6JwNMDi30NrzROCN1i5bgvjLH+ziRV2GP7jtNXAJQzCyV8PtdVmF+FPCT30ZQA0BJ0UBB90U+iXF3+suRqsSfyowKWE+4eLDsdkaxFmB1YM42sB558zSC/aYaeenib9ll/OOij81/yzxuSSmAuzVc38hJosImfl6/rCvn16gVzQovtJEwnLLqepmMP9ZeWZ1M9wzNztHPHjEZ+G6GHxPvJnd02PbFTHkGyPYfU4pz7IbcVpQ/Pl2pfgvwEb7cSN7c9XfeX7VjOLmygjcO/HnTdCfL/78eTgJa88th/gE3QO1DIhYXGmKSmsAACAASURBVLqDcWDNOSVAF49eFHN4brRgqzb/LHXNrAAQ76Ebztd78CT1ZHlDWq6AWPYn88LCT9l6IwEIQAz7Jn5JQEaVGwv2/PmiaBb9rMz2/qoHpCaygick/MpgV+DKefmM0HnqfYFCfIVi9q8zi6bPJP6WVE4l/nJG86siL9rz54uaGzb28ZGnE1j7tYR1/5Tl8X+z2BW4co6omH5uaD6e+VtfSD6LSFhOOVXdNBC/5qESfyZaCUs53XTYN27IV/DMwn1xTvNFesCn2o8s/tNOD2wubm/e+jvPrwGz+GNFBO6d+PNvyrSvMuQJbPhhwbpakP6PLupqGQK7j17M1zS8taxSBMS8rG8k/vIEuzgYnKpJ9vHiz+35M5PFinorTVoaZV5R449nW+ev9VULuIhPKHZvcsCHLZeBMdD8GnspoERR3FIVatg3cc069YBM5hmfawa7Ahcumo+WyDrLqcTfgi8Qi4o/qOC3lAW/vcYz/kXO6xWPm5smvmXbWEj4uR7IYJfmqSUEfKi5jesop6qbSeJOib+E5XfEVyhuFPARP+Sblfti9UF6a45ID/h0ST8Ws3eR+jvPr0sqEJNJJZAu/pRIinR7K+cl9/Kk5nrDg14lTWgUVeRh4hv6bPK1GdcoB2wTEVD6qu7aWm3mNqryw+7egz3aszH5UJu/0LR7k9+A4w3E3yzYJcMXKnQhi6D4c2wbtvjg+jMz4Q3dg6qCcZa+1IszR9j9cTDnjIDX9R+LLfUiU1CiKGYpCvGSYho7KWtKqnssWq90++K2vfqYNFQWvmLxfPyU1lhOFeAQ37PkW5S4sbD4U2I9Za6h91wyYj4LKURE3PJTXsPZ/R5fO8W6qt15L54Z7ArAkKJiUX4irfWVUwUvJdwD054b3GXE3F/CTtURkDokrMGJtCtXbZSTPtuYgXt+TpoxS/CTllqmzfz2Llp/5/g1k7U86aYEUsXf9LTmLZvytIOR/nyy+24IvVjWoHmRPo/ipgbGXR+5SQMnKXEXF4msBTY8bmKYtkj17wkGb8owtTd9b6i4gq77+Rkb4/dV1D+PvCU/ImJTH/INGBj4IRrqPNF9gYvFj0W/7esHuxiofIz7DJ7KyYF9ZaG+q/dwaeLvewclNb/k7y4mgWFtlYb4q5YgSZ4TqJ+9GduqFy1BnItV/0XZk3qZlSgyTJTfDDCV95B91Z0bHIOphZrLdQe5l6yZZ5cO9yb5qHTWWE7vBSKuB00Zk/538W/7Ohi8EpHtyZ87VI2nsVuHdSWfi478Xm/kO7UT9PYLMLaKscOsJRFFn2mtv/l2zYjYGB6XvGf6XhcT/Zk+O2nu1trKqcRdUvSzXG4laekoNdKQVeiG25XRcdmfrx2FMp97Pk56Dsvxk55ilu189t6g/s7zaxZjec6NCSSIP9UbEIzSFXO81A0VmPwd6Rm8sV2pCYRv0vDJ9pkQrTHDEv91UFRCJetf1bA7AzTFIq6B3sIJui/LrgCIPIBET1nst4V1a0WPQHXxIR89qVzbNvovU1ZUj2WjN3qa+BP5/rbhOOItcAfGVsLSKPJNOXldu1wFWNPJ895QbfT2DST1PPjDvq97GB7XUJSLOxd2a2hfJEUext97+dbhm2OXS28Z+Ug3KPG38nLKz7s9U/No11QNVDZyiDWp59p7LlXQObfQeO593cMwt1E+tEJR43O+aCDvv6yiRQ1JJ9nlmi97kgLP7QxLz6ii63/XVU5vSoyJZsx0GWGP18OdMmqh1uILPLP1kgS3g+2KWOZpzhJdS6sPmh1L9JOWaqbNTfFrJmN50o0JJIi/G6e70gSCN2lMVs4IrV0D5bniK+bapF3yRg/3knlCMzrUM3pbnTvkO/lQQfU0rdctyZjb3h8Sf8qc657bW2W+VHMD1QFvArOZGNmqnbdRm145Da33N2yeiOAuJi3eq0TRml+OhI2pdoULcdPf6yqnm0/aUPlNCzLvek+0Jb3AqMbT+jUvnWUfT7dr2bmtq5zulyIiIyqqNN7Ly87RMHlKh91HXQjpxDRUWt7fue1K8HQ5mmFi8+pDxNBMOzbDr5lM5UlLIHA/xZ9o/C5bKD5uYbjg0EaErXwji0S4ul8UCU84HqH9Ir13QtjX+JD9e58Re251R4L4g1q5PTwfUwyfFu6g0JU9Tar3N5a5g+FREbGN0LpEUV67Ys+/wc41lVNEXt5oWaQbFNG/VKxlZsZPA1hX4+nbom+k2KWftozttZRTBGtspYyKiCVYxPp7aVN35Nzk8JJUSQzyiz+5tt0m1oekQqbs3wi/ptjHQ8slcG/Fn8Ak5uiV0t4M87CM7fmTn8QJTzi+aqN+mjSsBzjfu2jJYJE8JmzOuUniTw4lhpbhcL42UX41uNli1rdUeHcx68SIXGWUWLKnFA3eUAFTqeJRpbGKvwl2LTurdZRTiBvxQrWsl7kbMBAvbqUXVuATbiK54WsxTUafHnGDTBa4NMmuBZJKvWT15RSrEJRT5pOLei1GVuZUBneqSTFl3l6wmAuJP9nRsIn1IVi6+b9u36/zbeQZyyNwr8WfwDQ5raGWGtCQEaaK7tLnj8hvR/oTs+0JJjYweltH0tCPEH6N45Shiozm3O5pCeJPzosMDIP8tNA4upvCz2NsQ0SItr7OCWz6M4H1T3CtNj9g6nETgzmXr8yfMXYtO6+Vl9Meon3YxTi1l2fZpUpPz/7aQvWN9jlDYeNTb450ZZnTTdLNiByN2BU544Y71lDOyWkDLbVYe8RcEQzRQFKE9Ox0B6O3FdQ+ZZ9Ws6j4E3lGuK+B06ysS9hag73pfl1CGZhELgJ3WPxFg1GSSu5876H9cZQ8NyTpwtB+MexkqKi9PyqKr47uhzrKb3qwXrUxFIv3HliI6/dzxNIBey30LwYY6P/E1z7+0RbNDeW7eT/lXLi4qMatOvrXnsXTLx10v8aR2LwSzbNoetFF67iLkSxb/PkOxp/asK7+X7RigmbCUwbi01jFXmXXnJ6S3FnLehAq6zLL6fzXQ+dsvJm9xtdDdN728f+dVrwI2gCH8NSH3HAXv0Datew7LzbYL2Xpm/wFmGLwvothkuHOGL33aZ9c9HK0Ly203rTRk5+eTLRDTVdYlt82tT4kAvAO3Lpf59jHw6shcCfF32pQZElVvHVWsS2ifo0CivttDIUYcIZobpkovRtBRN41zqLdPN4E/KBg1SPvajHXZLHods6RPX/v+7AOyyiIh6eIajzoeDxuxyjmSgIkQAIkQAIkkIEAxV8GSDwlTCBh2Dd8Gn+TAAmQAAmQAAlsHAGKv41zyR0wSC6hsMzhvTtQappIAiRAAiRAAveCAMXfvXDjmgsh58rEf2x9zbYwOxIgARIgARIggVwEKP5y4eLJLgF3zcOkj62TEQmQAAmQAAmQwCYToPjbZO/QNhIgARIgARIgARJYMgGKvyUDZXIkQAIkQAIkQAIksMkEKP422Tu0jQRIgARIgARIgASWTIDib8lAmRwJkAAJkAAJkAAJbDIBir9N9g5tIwESIAESIAESIIElE6D4WzJQJkcCJEACJEACJEACm0yA4m+TvUPbSIAESIAESIAESGDJBCj+lgyUyZEACZAACZAACZDAJhOg+Ntk79A2EiABEiABEiABElgyAYq/JQNlciRAAiRAAiRAAiSwyQQo/jbZO7SNBEiABEiABEiABJZMgOJvyUCZHAmQAAmQAAmQAAlsMgGKv032Dm0jARIgARIgARIggSUToPhbMlAmRwIkQAIkQAIkQAKbTIDib5O9Q9tIgARIgARIgARIYMkEKP6WDJTJkQAJkAAJkAAJkMAmE6D422Tv0DYSIAESIAESIAESWDIBir8lA2VyJEACJEACJEACJLDJBCj+Ntk7tI0ESIAESIAESIAElkyA4m/JQJkcCZAACZAACZAACWwyAYq/TfYObSMBEiABEiABEiCBJROg+FsyUCZHAiRAAiRAAiRAAptMgOJvk71D20iABEiABEiABEhgyQQo/pYMlMmRAAmQAAmQAAmQwCYTWLn4c34NYR1Vsf3CwnSTSdA2EiABEiABEiABEngABFYo/hyMP3XQ/rcM0zBg7FH8PYD6xCKSAAmQAAmQAAlsOIEVij9ZcruPOsXfhlcDmkcCJEACJEACJPBQCKxe/GGIFsXfQ6lPLCcJkAAJkAAJkMCGE6D423AH0TwSIAESIAESIAESWCYBir9l0mRaJEACJEACJEACJLDhBBLEnxyqFcO18l/lVMTqRvcbRgXWL6+U09OKf75htDB0dweHfZ3vFhrPCu55hWcN9H/GE5petFF7su0Fi5jbqB71MP6tn+tgetVD56CMwpHIaYL+vyWYRgHltyM4/qk2xqcNVHa9PI2tMurvhrD949wgARIgARIgARIggYdDIEH8AbgeobPnib/S+/GMyB8bg6OiJ/Je9mD/mR0SW855HcZuC0NfXc3E3+hLC/UjC/2LPqxXMgr4WReTQBIOhkdFFF/2MHEVnIPJWR1Fw4D5pIORe+4Ug48Wui+lHUd9DI/raKjI4sdted4E1gshBoeenX9sDN96+RZe9ikAA9z5gwRIgARIgARI4CEQSBZ/ovRXbewI0fVqoPWkCWHYQ030CEaEGzD5UEbzYtbv5vcWblXQudL3T9B9KsRlFT1tAUD7cx2mL96UCxwMDj0hWj7RpOKPLkrCjsd19GQPov1jiJFMb/S2CGO/FxJ5Kl8zZKfKi39JgARIgARIgARI4P4SSBd/mKD7TIiuOvp+T56AYaP3j9i/g/aVDmeE9jPV66b2z3r+NI3nHhweiTRmw8bAFNaeAfON17+nUhB//SHlF73ZYtG/LFSE+HvtDTDr57ui0zRQ/RTOFfDyjc8nmAZ/kQAJkAAJkAAJkMD9IjBH/AGTk7I7xFs709Tfjy7qL+soh3oFnYsmKnrPnMtqnvgroftDQZXnynmGar5h8K+aSwhAiT93zp9KQ/5Vx9LS4sLTIWj8SQIkQAIkQAIkcN8JzBV/0SFeB4PXdfSvbfT2Rc9dDb1rgUn8Vts6tnniz0DrUp4vBVvpgza0qycV3lYCL078XbZc0dr4og81hxPgbxIgARIgARIgARJ4WATmiz84GLwyZ0O8P7qoHnvDsqKnT3y6zZ2H96OLSnhuoMsyh/jDEE3RUxeZp5fglDTx99MbEt6RtiakwN0kQAIkQAIkQAIk8KAIZBB/euBHH/1XVX9pFzWvzjAbaL0uh+b/KY55xJ+aY1hE6zKux87B8ENvFh2cJv6cAZqmAcOswopdTmYC62SgjORfEiABEiABEiABEngQBLKJPz/wIxr5Ozre8ZZ9iYn89QjK3ryn4SVdZoEX/rCvGDwW0b6i988soXE6gq004O8JBm/KwTmFSvwdhqKRpevcaF+R1lYF7YsJHLksjXM9gvWyxGjfB1HFWUgSIAESIAESIAGdQEbxB9hnNRhGMdq796PrBn4EAkK0HOyLprtcjIjq7eo9cH/G6LiRxEZQ0InFmtX6faFgDfOFNev1ExHAn5RQrAeWi/Gz/z1C+7kYshZzE4P/ikfD4PI1/kXcIAESIAESIAESIIH7SyCz+IMYRj0Ir5knwNjoHTQxUD10Giu1pEpAeB0NZ8u26IIsEHlrY3zWQk1+lcN8FP4qh7ckTCBdkVZc4MefKQbv6ig/8kRgYbeG1tmYwk/zEzdJgARIgARIgAQeDoHs4u/hMGFJSYAESIAESIAESODeEqD4u7euZcFIgARIgARIgARIIEqA4i/KhHtIgARIgARIgARI4N4SoPi7t65lwUiABEiABEiABEggSoDiL8qEe0iABEiABEiABEjg3hKg+Lu3rmXBSIAESIAESIAESCBKgOIvyoR7SIAESIAESIAESODeEqD4u7euZcFIgARIgARIgARIIEqA4i/KhHtIgARIgARIgARI4N4SoPi7t65lwUiABEiABEiABEggSoDiL8qEe0iABEiABEiABEjg3hKg+Lu3rmXBSIAESIAESIAESCBKgOIvyoR7SIAESIAESIAESODeEqD4u7euZcFIgARIgARIgARIIEqA4i/KhHtIgARIgARIgARI4N4SoPi7t65lwUiABEiABEiABEggSoDiL8qEe0iABEiABEiABEjg3hKg+Lu3rmXBSIAESIAESIAESCBKgOIvyoR7SIAESIAESIAESODeEqD4u7euZcFIgARIgARIgARIIEqA4i/KhHtIgARIgARIgARI4N4SoPi7t65lwUiABEiABEiABEggSoDiL8qEe0iABEiABEiABEjg3hKg+Lu3rmXBSIAESIAESIAESCBKgOIvyoR7SIAESIAESIAESODeEqD4u7euZcFIgARIgARIgARIIEqA4i/KhHtIgARIgARIgARI4N4SoPi7t65lwUiABEiABEiABEggSoDiL8qEe0iABEiABEiABEjg3hKg+Lu3rmXBSIAESIAESIAESCBKgOIvyoR7SIAESIAESIAESODeEqD4u7euZcFIgARIgARIgARIIEqA4i/KhHtIgARIgARIgARI4N4SoPi7Tdc6UwxPW6g+MtG6vCVDnBHaT0yYT9oYObdkwx3LdnpWQ8EooHY2Xbvl9vc+2n9vwzwaZsv7Vw+1LQOF/R7Wb202E29ylvNrCOuoiu0X1r0s303Y8FoSIAESSCJA8ZdEZtX7f/TROW6gbBowDIPib9W8l5j+rYg/ZwzrqInarldfjAcv/hyMP3XQ/rcM0zBg7FH8LbGKMykSIIF7ToDi75YdPHx9y+LvlsvP7PMRcL403JeFzOIvX/J372y7jzrF393zGy0mARK4VQIUf7eKHxgeUfzdsgvuVvaXLYq/gMeGaFH8BYjwBwmQAAnMI0DxN4/Qio9T/K0Y8H1LnuIv5FGKvxAQ/iQBEiCBuQQo/uYiWu0JFH+r5XvvUqf4C7mU4i8EhD9JgARIYC6BFPHnYHppoX1QRkFOLre/tlHbLcAwTGz/3cHo99z0V3KC891C4/m2N9F7q4jKQRPNF20E4x9tDN/VUX5kesNk5jZK+y30f4ZM+j0JRtz+mWJwXMW2CMQwt1F9N4IKgp1eqPIbKDxrhNLyeLX+3kb1VMRV2hhq6ZQPLYxjeKWKP3sM67CC4pY3NFx4Vkfnqx0qQPLPLJycnzJa0mwF+X1tetzEkFrCv4pbTpW/jfFpAxW3fhgwtsqovxsik7XOFKOzDurPCl7gy88+Gk9MN432N0VfIM3BYzpA56Ds+VHU1+cNWBd9tPdkHpCiQZVNCxiYnla0Mldg/VJlBODYGJ97tgbL72B61XPz9O6XCfr/lmAaBZTfzuqQqBeZOdlj9I5q0v+yDO/rnm2ZAj4ciOhgwaGglU+URuzvHs6iZPW6Eq3bWvkTNt1744m8J8V9c9SLre/21w7q6t4VfnlSQ+t8Ep9qwIcGCrsVNE7HoToVFH9uOZ6JZ1TcPRqfjb53eqHbF637yuf294EWZexg9K6CgijPP8Goavu/Hlr7RRTceiZ8WEfnQo+7Xqwe+n5164Hj1qmy+5wooLjfxvBaLxW3SYAESCBIIEH82RieWei+LMqGpo/Ruzrqxxb6F31/v/lq4AujYLKzX0rcJAmIyP5QIzVLSW5d91E3i2hdSFnhTNF/JezUxYuN/oEJ43EDffmctf/roCIewGYTA6UnvvfRO+ugqiJuz0foHNTRORtgcNZGxX2Ymqh/nmD8oYbqYRe9ix46/4hG3YDxrAu32fo9Rv9jF83nntCsnI7Qf1lE9bCN9usaSjJ9Y7eNUahAik9kqZefFqpbZbQvZTmvh2i76RdQP88gqTJwGp/30HtX9coS4AdMT6uofow2yvbnunu++cLyyu6WZwLrhRA5Q9h/APyxMXzrRWEWXvZDjXUIwK8BrNMu6jKKtXU+RPuggYZkufNWEsvBY/K5jqJZRuti6tXPPzZGp3UUpdDTWdvnDa/84XpnD9B8LBp/TfxdD9E7s9CUtiohAEwx+Bi8X4bHdTRUJOpj5fccnH56S7QUX/Ywceurg+l50y/D/IAPcQ/3YLn3RjAaVvjdejOLkh1+bqDu1u0Bemq/qtshd0V/OhgeFaHbOTnzWJtPOoH67tWdHTQ+q5tyjM6eYGyieaFuSi8H57KFkllE83zmw8HrHfd5VHyji+mZ+Bt9aaF+5D2jrFeyfJnLAUxOxb3g5elaMe37vt45GspnnYOR4Ko47VkYfhL8atI3dfTd29PB5KQKc7cO60rdwyNY7jPVROmNSs8rb/Z6OMXgtIvOvno2DzF6W0b5oIn2cUM+s8Rzro4+BWC0unIPCZCASyBB/Ek6V23siAbzSRMD/UHiDNBwG1JdcK2H6PRTFcb/dDAOZDdB95lmyy/LE3qB3hEhCGVjHur9UxG31Q+hXoXLlicMduvoBa6ZwnIbrQosbb+KxNzZC/UwCuEiBWD5JCio4sXfCO1dA7WzkMj70UVJcNcFbIDD7EcmTu7pQzRjfDk97c5EskpWlWO3haHWizl6W4Sx3wuJvAm6T+MbdpWc/nfyoeQ27DsHPSkqbUwuR5gKMYkcPK7aKBomGl+CYkL0uPX2hT2hZXVUXQmLP2g+1nv+AEw+ej2DM/EnS6L883hWX+wfQ4yk1snOaeLVrxjhMjr2BNB88Sdt+invhXD5VJTsVg3d7zor5TdN9OqOCm27gs4Xt+qgg8Ghx3pW3xVP7T4VPZCfvZ7Miv6i4b64GCh/CN4rzre2+yJV+Fd/oZDib6uCzlVcOaro6R1tysTw3+seauI+ONDTBpyLpvcMMFsBIQv1DHxcRvurzHc6wvCHd88631oJ9VA8q7z7ov5Zu7/z1kNV157U0NXL/XuIlnw5yfJyHsbA3yRAAg+DQLr4Uw+kgIgSYNSDvBkcKlwDM6+x0HoPZJ7TU2tmizNEc8tE6X1QIsYLrZSIW1X+cMOJhGvkfKyIKBCC4aTs9aKG0oq1yRWdcY2WGiIy0fqWDjsTJzcJlWawUY6m7gkwwyiidak3skO0TAPVT9EWVpXNfBPu74ymroZam1+jx5CZh+0J/IgY8dJU9ug9f0j0sarjURGkbI34WaX1OjgBQeaemZMSHJH0RUJqOD5yT8ZwE7uUTaF6BzXsHdmv6nbwxSY+dY9RnH8VI+OFGgZ1MHxdgOgNDNyVMXMYvXslS/7CqlnPX7gGev6O+i+2LElclcgL9Yz7+f6l94CrlNWLRiP6AiUE71nNexbo4j7RTwn1UJ0fUw9U/THCUzmUefxLAiTw4AncUPzNf7CqBjcyvOv2Nnm9A4FjMY1RwEvyixTimsJeC9Zl+JEfONv94c+PkXkGGv8kISeuVA/YGJtUuQJppYg/qDf1UCMSl47fcCYxMgzECgO96Jk5ZRF/3tCeGJ6rngZ7Y3xGKbZmWYBXlTnAU5ZHHQvUk1B+Lg/VUMf4SyQVx9q3P3JNQqMrXn3knMCID1R9iWmQ/XxCdgfK5Now6zWLYyGEsHtNXB66/9W2silSvnmiKdRDqtIL/FV1J+Y+9suZ8FJxPUZfzMmV81lnPZlSwIfuk0C2gR/zylFC90fggvgfSvxFhLtMP9zzlyI6/V7BpDIonxjaC57aF/FTQj1U58fVA3Uf6FMW4kvNvSRAAg+UwMrF32q42hidNPy5dOaTBqz/tCEUmamYhF59tI3yQQf97zYGCWvqxYoCkYZ6wEYeyAlCIk38qWG2UIMQl7e3L77XIB/PLJxUA57QSIsYhy/evLjgPD9piSxzdJg1n6VKUMUJnsw8UvwlrIljnezjhEZ3UfGXmZPKN0F8bZL4k7xLoeHZVM9PB+7n6bZF8NL5GPZFWMyq8mvCKDXBeeIvgWM4TWeAppiaEe41lsPB0SHU5Hz9OhW612dZqntOe3lOrLuKh3auSEidHyf+xDSJ8HzVWebcIgESIAHcUfEnPfdniqEvAvXhyAl6+wUYu00/4ENcEdv4p+z3H7DLFH9PZZCILEKcTd6csh20r5ZUQxM5uVS8RXKTGqqEeX6+ZXJO2c7x/KFd/5qYjTTxl5mHahBjh+IS/K+uifg4odFdVPxl5qTyNZA0BL5JPX/ufNHIfM8YB4upD5/EN5G1gApxWkTMTtF7IXoSs37vOlmExd1b8ZZ5e70gEwPFo4EMXJLBZFtxwRPJ+WLaQ9Xt+UwaulbiT5s2k7ceqvNTxd8yXiDTiPEYCZDAXSVw58RfbCDC9w7K4mErJ2srIRHujUpqDJL2Lyr+YntC5LBvWCTF5a3m7MT2tIma9tNC9yK9ymXh5KWgGqK4nj8ZeBCZ56flrXpMzGog+GV2xgTWyWD2M2FL+Syu5y8zD3+4qxw71BfHOtnHSoSFelwWFX85OA2PvKjxcF1x0UXEUgJQtVuJhIi4TRYvsZxUeoG/KnhBf/HST3Aw/CADeJQdh6EVAmLKo4J/zFDwhUrZ/tyVEbVizzLK4aeM/qsaamJpHPE8Mb1Rg/hlU5LzBRSXmKAtkZUcBQj0Jio+ET8l1EN1fpinSF/dBxlFuSo9/5IACTwcAuniT0UKRt4uEx5Ia+AmREI4ChAYo/M/M/GnGq9gtKyN/ktvbpInMBw4Mm5BnR8RHuoBG3kgJ/QiqYYs5oHsRnrGzMGJz1sFV4h5jW0MfqoACwf2lYW6iL5WuxKYZ+HkXZok/lLm+YkLnQEGl14KXtnE2n4VtC8mcNwIXcC5FktblCLLeMSZrMRfWLDLHNzoZ9Hjlc7DweCVJ5zMF93gOnNaFGTAz6qhDA/3/ezJ5WeivTfK1sQ5fzH+F+XIzMmNWBZ1NZr3MgM+3F67rHU7zmkyWtdd9sgsoXE6gq3q5e8JBm/KqKjodnVvhASJivZVc/6c385sSNMw3TUS9Qkd9mUblde6gJTR6qEedWFu/L2VUBB49b1+rgqQdJ7aL++bmHzFGWqqhLHbwiiUpPcyUwz27Oeth+rZFJO/YGoaO4HALBEpLeZXp/hKgwAAIABJREFUFvZub31WRY5/SYAEbp9AqvibnsqotKed4APM7qPhLl2yg6Zab29NZfEa3gJqJ7OGxlv/bNb7YJ97a9EZZhnN0z76p23UD9po/eOJv8rbHrpHskx/xui4Sy8Ys4ZKlsW+aHpL3TxuYqC3QM4EXXepl9A1qoEziqiLhtAVQWp9tphgiZS8nas2ymp9QH/yvLB/Vs405Fk4uderXlOjgq6+bM2lWKrCQHzvo4PJx6q3ILNI5PdIrkHo8dWDGIr++mgp1v6ZoifWZRT5HfTk8i7B8zPzuB6gIZe6cBeafi3WWqyjdjxEP3bOp+2tCWkYKO530Lvowzqqof5pKJfzEfubaJ+oBatt9A9lz9zrQWB5m+knVe/q8cuLZObkYPhGriUp1is8H2Nq25hctFF/Ltd3M8tovG2jPyeYwV8/LlSHxRCnu4yTUUdPX8YppU4GPaJ+Tdw1LXWfq+1A3RG9XW59NlF+ZaF/LhaQr6N9JJ8xe230TlroyEW9vTX3ZH3aKqL0tISSWLA9tMyQf4+G6i/ylkMO1Rb2GuiKdT4vtH+Xgn9QwdlCTLn3ZRntb/rDQXFRL08GCvtdjCRj+z8L9d2YZwFy1kMl/oRAfjPAVJpnX3XdZaXC950SwsI3/tqZylT+JQESeHAEEsSf6tkLNuaip0P1eqgHvPs30jO4Oo5CkBZFQ6C+JKG+3hAI+BAr7suvdGwV3YZfPJ69dcK0r5P4Yk0vpxj+TC6/P0dJF2Sq90SmV3nfh3UY+rpEwD5twraeTnjeXeALB2Ll/hZ6gTXZkjln4aQ3CMqfbm+W31DrXKLbgR408WUU7Ysqhd0aWmfjuYuA+8OuAQ4Jk/Sz8rgeel+1EGluld2vQoi2UZU3YLdA+HuEzt/e1ymE3R23MRd1oOAHC7mk/QZXZ5FcX1RvVsBLOTgFviizW0NbfBlCLHvzqIq2CJaQPayB9P0f8XVYlF1xUD737+G4+0HVbT/duA0b47OW/PqPAfNR/NddnKsOqu4Xd7SvUMiodFGm4Dp9gP2tO/saiHsf9zHR1pdMKkfsM2peOZwROnJh8QAXv16aKP3bd9egjM03If3gF0PkPRx+FiikWeuhOF/Vxdc9DI/VV2DEV1BkPVFpyr/ihbhgFFD5uwzTX34ndBJ/kgAJPBgCCeLvwZR/uQVV4i/w2bPlZsHUFiegGu2I+Fs8SV55jwhMTtuwvtuYfh8Ge/7OLXTcr2dkDUJZAxQl/vK+eIupPJHlbNZgL7MgARLYKAIUf8t0B8XfMmkuPS2Kv6UjvTcJimFmf35iQqlEj2JsBHbC+SvdvaD4s8/qmebgrtR2Jk4CJHDrBCj+lukCuVBs4FNVy0yfad2IAMXfjfDd34t/dN35e+XQF4ECBf49Ruel+kZz4Mjt/FDBeHl68X5aaIS+KXw7xjNXEiCB2yZA8bc0D9gYHnvfpzX2upikzsdaWqZMKCuBvAEAWdPleXefgBYJLubMNY676KmADzHk+7qO8vPQ981vudR+MF4okCfJrMlZC52v87+GlHQ995MACdwvAhR/y/CnGoLxJ4d7AQGcW7YMuEtIIy6QIRxcs4RsmMQdJiAWQherAuwVvTX+xL1sbqO030D3fBKI6r7dUqqlmfSgowyfe7xdo5k7CZDAhhGg+Nswh9AcEiABEiABEiABElglAYq/VdJl2iRAAiRAAiRAAiSwYQQo/jbMITSHBEiABEiABEiABFZJgOJvlXSZNgmQAAmQAAmQAAlsGAGKvw1zCM0hARIgARIgARIggVUSoPhbJV2mTQIkQAIkQAIkQAIbRoDib8McQnNIgARIgARIgARIYJUEKP5WSZdpkwAJkAAJkAAJkMCGEaD42zCH0BwSIAESIAESIAESWCUBir9V0mXaJEACJEACJEACJLBhBCj+NswhNIcESIAESIAESIAEVkmA4m+VdJk2CZAACZAACZAACWwYAYq/DXMIzSEBEiABEiABEiCBVRKg+FslXaZNAiRAAiRAAiRAAhtGgOJvwxxCc0iABEiABEiABEhglQQo/lZJl2mTAAmQAAmQAAmQwIYRoPjbMIfQHBIgARIgARIgARJYJQGKv1XSZdokQAIkQAIkQAIksGEEKP42zCE0hwRIgARIgARIgARWSYDib5V0mTYJkAAJkAAJkAAJbBgBir8NcwjNIQESIAESIAESIIFVEqD4WyVdpk0CJEACJEACJEACG0aA4m/DHEJzSIAESIAESIAESGCVBCj+VkmXaZMACZAACZAACZDAhhGg+Nswh9AcEiABEiABEiABElglAYq/VdJl2iRAAiRAAiRAAiSwYQQo/jbMITSHBEiABEiABEiABFZJgOJvlXQ3Pm0Ho+MSTLOE9jdn462da+B0gPZ+EQXDgGFuo3rUw/j33KuWdIKD6aWF1t/bqJ5OM6Z5z/hnLPXaTnOmGJ40UN6qwPo1L9dF/DcvTR4nARIggc0ksDrxpx68+xayNoWbieg+W3V/xIdz2UJxt4WhDeDPBNYLE4ZhwDzoQ+xa6X+/x+i9a6K2a7h5Vij+Voo7S+L2lzaa/5ZhihcBY474W9h/WSxJO2cKa8+rM6Kuxv8roPi0hNphB9bFGPaftPTuyDFniNaLLiYbZu7kvIXqI/HcMLH9vAHrvwWfHD+6KMf4s3wSX+Kl5bthPGnOZhNYvvj7PcHgfQOVXa/xNfYo/jahCjgXXfTm9n5sgqWL2DBCe9dA6YP2cP09ROuJicLLNYg/afL0tJJT/C1S1pteM0H3ZHjTRO7I9RN0n2YQf7I0t+Y/Z4KuEoF/dTHWO+EdG5PLLhrPCp443Kqg821BUbIhXrPPajCMHbSvNsQgOBgeFWGYVVg/PPj2RQtFo4jWpe6MLPY6GLySbZ8uAM0mBpGklplvFtt4DgnMCCxf/Km0f1qoiMpP8aeI3OJfB4PDaoahr1s08SZZX7WxYxjI3uN2k8xSrv3a3HzxJ3oljh6K+FM9a3N6/pRLb9F/SngmPy9tjN6qnsxFRIkq5G3/naD7zOvlNF8NENFDt2Ce/bkO0zDR+BK0ZnS84wrCXC/N4v7a72UabVhqvrfAjVnebQKrE38YokXxtxG1w/km3mIzNoAbYXE+I6afqpshui5bm2FHIr4pemI4nOIvntAt+m+++BMmOxi+3vF6AM06+tfxxdjkvc5FE+bjHfdlzTDK6P64bWu9UQPDaER75uRLZXaRKl6ySxl7NJeZ720zZP53kQDF3130Wh6brwdounPR7rH425Th1lsUD/OrhIPxh6o3B47iLx7XLfovm/gDcN1DTQ4n7hyP4suxsXtt9PZNNC8m6O17vX+3XgYp8GJ7XJ0BGoJ17JBtDGQ112+riMpBB/3vKcPzy8w3xhTuIoF5BFLEXzj6zcbwuIpt04ukLB9acyIpN6Tn73qM/rs6ylstiMEu57vlz58p7NbQ/hq6Qa/HGJyKib/eMKlz1UFly4D5qBacM2eP0TuqobglhzAelVF/N8A0PCE7b/7KYznST7L3f/9fz/bIRHLV+P+eYOiW1UTrUmWs/f0zxUCwcydBGzC2iqiJCNoQMojgntM26s8KMh1RVyQbEXX7bpRveCdjvn6DKRvDWTkzCN3rYSAyuLTfQPug4Q2N/5JTFlS6iheA4ZHnby8vr075xHTx8HsM67Ds3y/V45i64XLzJpnH8rdFGhW/jhWe1dEJ11eZ+fSig/rzbRngUEBxT5+wPkX/35I8ptufgZNIP1IXS6j55ZH3uWKlTfMI+ieYl/19AOuoiu0XYk6wg9G7Cgpiov0/vUCA2PSijdoTWa45EdwBBqKuHlto/yXKG8zb91d4I7P/QmV2y67XBTXcLFlr9Secpfrts9L4qWPBv6J3Sab7uA0l/5J5vsH/o3wj/mrp+3m6x+MZBZjq6cjtXFMtrtooSpvdHkCRRlZhFYSwtF+TDyWvJzXWR2rOaJb5icIv0bl+hb02hjE9tMvLd2komNADIxAv/n6P0f/YRfO5V5krpyP0XxZRPWyj/bqGkhCA4sbdnT18otwWE3/BxlXmE/PQ8Rt67WEWtmF6YaH7roaie30Lw6s2ys/qaB630diTE6gNE/XPnppxrnronbZQdstXgfW1h8ZBw4/i9M/70UXVLKJ+OvKi7/7YGJ3W3XzMJy0M5fIiefNX9jsZ089qr8c09HD/3kfvrIOq9GVEfLg9hibKbwaYulNhHEwvJJutGno/pbXXQ/ROu6jLSNfW+Qidgzrap30MztV+8bYfnE+jyhr5mzVf7ULViGVviMSQi4nqx4knSoX/3F6xIKPx+3J8w/Cz681nNfQGH4ASD+8ttJ6XUX/dRvtQvjCJyOMX1izC8UcfneOGrGtGVHz/tFDdKqN9KZW2EKvu/VhA/VxX3w6Gb0owd5vo/5KMBcPH4t4poqUv4aNEbWxDpwHVN3/2UNsyUf0g6zocTE68wBbzxUyo2ecNT1yG70db2aLYOhid9WC9kfPX9iwMPzVQP1T3aR19t3jeZPjiyx4msv5NztQ91vFFj2eqZGDqvEboyojv3OIvi/+uB2jJOm/EBhU56L80UDwaZpr/peqwLs50N+jbk48ef69c2Xhm988sp8mp6Ckuonku12uY9uUogoGdo2G+Fzp4gRCziNcR2m4dzTdXd5ntgyipSi8QLOYjmIn48HxA/5Twxm8bU/Vio9pJ/Xkpz196vmE7+JsE5hCIF3/yIudLw238dvZa6KvGXhwTDZOs2LObOZzTYuIvnMrNf6u3txJqJ3oPlIy0irx9qjfrHZSP5QPuzxSjy4n3EHdG7kPfPIxOVp588MRCcHmRnPnnTn+Ovf4DTjW+QaLD157ADoo/OTfsWXQ5BlEn3OUzQsJ/9Nabi1R6PQg0dqoOZZtnlj9fURrVcGYWf99aMI06+oE1AAXHUFCMFHNR21XPT7z4M190g73i/tB7tKFTjUCQvzcfqHamizwAP7ooheqrN2k8PHdKLuFjFNDQhWJu8efZEanrv4QgNGA+6WCsqpNKOyz+oBrQUP1TQ2qPy2h/laJ1OsLwh1dmt1xaz5aXjarrBvTnjvO1iZ2YCfuzIdJQ3srm8F/p78z+U8N8MfcJIMRNDb2YXp9wtuK3qsNZxJ9/rlGazZmbwxN5/aOGl0NLJc167FohAR5XKm2fm16Qx+REvlxF/Kxdt9JNVTej96WX7bzjc4yzR/KFLdjjCv+eWFG+c8ziYRIQBFLFn9+TEbNumX/jRh72CuymiD91A4caamGmM0DTFbHBYU+vQa7A0gWvLJa3TIERiQxzD6sHZmAic77886ev3l7j7RV2+eWJWeolVnzI+Sjxb8PqjT3Ym6capKCIAfxG53WGCNMF8hXlU3lnFn8yn8r7cUCo4tIKDu0vKP7i7HDO614vYuh+ieV/KcRpFb3IAplKdJpofRMll5GTf2k9im5FTPifEgAZe/5UQ9/8mpCevlulHSrfrKELCzBZlljbvXvGfKMGNWcZKV8bfq+jZGDG3N+YwFp02HeWpbsV7z+1rEfwXhAXCHaFHNGsfrki/EKGaPXd7fnzn1FpPLX7MJK+ej6F/CMjnyMvPkpkhnu9o2YG9ojI2Uhvof+8jPILXLyyH6rsKxRhYskpt4dYHzpeQ74rY8aE7wuBhcWf3wuR+BBYTPypxtAf1k0b8hXHIg+zsGvUjRbXOMx6EvQGO1kszc6PiBw3W5WXgeon1XKrfVnyXyT9dHEnzEoujzoWHHZU81F0JjpV5SO9cVaNV4RLoijQU/S2F8lXXKnyTrI3mtMUvX1v2N98UkPnXPbqhk9covjDtIeqW5eD9UCx1Lmp8qTdA25Z7T7qIs2MYs4X4hnP93pzQ6IgzEj9TvSzqv/hdNKeD/JY6r0vOare0NjnQFLeyujQX+nv2HqU4D/xHHQX9A30/onABr2xD+UT89P3eWw5ghfMhn31F4Q0njcQf5GXNpmPmaPnz33JDvdOizIp8WzAyLg8irpf0u6NwLE5PNXIR6zPtR66TC9AQTf5v9RoyaxNANaRr28AN0gghsDi4k81PEsWfzE23nCXagCCja5KVA1X6jd/slhSaQXFkkpL/FUPp1l66pos+atz86Sv8gw3rjOrksujrg3mFy3DLC2x5TdUmohQ+3QR416VKAqCaYpfi+Sr2zNjHk07usfB5LztBvO4jcVWBe0LJdjl2csUf2rpo9D9osqsc/P2xSw9ES6EYuv3goVPCP1W52t+C50R+OnZoXoZA4eiP1TakcZW1elw/UwRKzKt+J7nUNbKR5F8xXlJeYfSUD/TxF+C/2YCRlsnTgQ2BMSgyiD5r7p/5r/Mzl4Qjaf6tIwUniLbvP5RoyLhIVnZW5d9+RPAHyVKFfP5xHIyyXxH1Aun/iI7S0Ey1YfXZwezb8m2Un8+rSXf7BbyzAdI4ObiL/AA0gnOeRjpp650WzUA6eJLn9DrNXrhxkoYKeakeXPkKh+1r0lo9qvGfPammCf/RdJXoinOXs+w5PKoa4Pib/RGRq1F3vq99FRDpTNQ+3QR456d2Oho0OTmIvmKS1Xe+sM1mnrSHlsTgSaqp5pflbCIiCXVKITqVJp4UMNloWFOVV90bl7PTobGUPVGxQ55xpRX+SJSnphzASh/ZOKq0o6IMFX/w/Uz7fkwRFMIhSy9QcpHIa5eiZLyji9v2jQXMUXEXfYjLh/V++fOg/V6syLzNROyVLtVHZ4r/vyh0uC8RyhxGuEvc8jtH0B8MlEE9xWPBjKwbYr+qyKMrTxrDIppIpowVgX2/6r17gzkEZT+5TfdcKdYGDBCcxvdZFUHR9b7K9EWUddD9/Na8k00iAdIINucv9g3cDnckrxOU9rDfZ3kVQMQ15Oi3qKDE5HTxJL/FhvbMNnoH4SXL8iXf/70lYALN64zxmnliRMfaq6XEX7rl0l6vaXBYRzVeOkixj09sdGZ2ae2FslXXKvyziRSxAWX3dlEeZW53UdDzP/Uy6yERUQsLSD+5P2iByqIrNP4B6KDlZ3i708L3QuxoYKJZhHr+mmAjf6J9nk75YtIeYJXqV9+sE4ouEcdx1UXXfWJLpV2RHyo+h+un2nPB/UViKQvWTgYfuh5kdMqXyN4D3s2JuXtlyC4kSbeE/znJaCGL03UP3RQW2D5ElWH08WftsjzbgujQAB9Gs8Fev7cgtnov6qhdlBGQYhxcxvlg07s0iVBkLNf7pDnnF5QL2hJvFTH+XCW1mq25BzmOIEnBVpyG5fRou8dlCIM1pBvRvN42sMkkKnnz4iJbB29Lc5ZP0s+jBJ7BtcFXDUAWmScyvq6j7oZXbbAa5BjzhfX/R54IiG8jIY4JodKim/1ieo588+dvhIQCfb6AmN23Pk19QMd4sSHH0hgmNrcRQXNa5iDEc2Amod0E/G3SL7CKtVwZhd/LUQiWOEtzREQf2o+WUjo22LJIHcIq+muHanIJPccyUZ7d7YMkLomnv+sN0SsEzb4qVp5B/aVhfqT2XdCVdkNscyJ/s3XPzaGbyvBJXaUUPLvZxtTtTyMMkj/6wzRkstxuEuuaGtYOj96qO9rw46qZ0wXzyKtnz25DFA4ICn9+eALArOEhlhSSSEQ3w5/U0blRPXQihcur6d653V4+ZFlBXwk+8/HpXr/DAOLiAXfjxHxrHLQPu8mvkHrB3qo4+k8/Z7LzP7xVkOonyvwKp88f8WzIkswhwoiiz6L8+S26LleXQvbKcof/3k353sPnXe9YES/WBHiYhRd51UEHb0oBZdckobmytcZoS2+7yy+7Xx1E58sSonX3TcC2cSfoa1pBwfT8yaKQhjoQ2QhMvZl21uWwqigKz+WHTplTT+V+DJgPm9hoBq7a7kOWLhBFuH58tuT5bcjXyTpxorhEHftwK0auldyOQ6xIO/LYnAtN/einPkLDZkn/Qz2qnmNxZdd9M86aLyXS978GaMjyzprTGVJ1XI+Zsld58t93IjFl8X6bGFmf6aw5Ir9pdCCzv76Yo+bGIRWLtGZ+tt58hUXORN097yheGOvi4kmUPw0wxtuD4+J0us+JnK5F/s/sXZjuE4rEWai/MpC/6KHzkEN7cu+9+lCw0T53zY6n6UQ+daWPSRltC4mcIQtag3BmLW+hFnx4g9whMBU64QF5kqFe8NE4zJbXLawW0LpacldXFqsMRdoJvxhrDJaZ31YR61gdHOYk14XZc+PSLu0W3C/eRoUIDMRVtzvoHch0q+h/mkIS/qnuN9E+8Rb987+pgR0SLT6NkzctUUDk/clh0iPqLsWoVcHRB0f/rRhT0ewXtVQVuJ1v4nOx/j72c9yAf/51/rBC8Ee8dnxlC29Dv8VWibIsTG57PoL05tPGrM1NrUk5/PM5x8VoFTYa6B7NsDgQvt3OcbUV+OaEfqmY2NwJDoIdtD8YgfroX6e2HZG6DyV97BcVzBQb8PnL/23XPZLrJXpTvt14K0pGb7XRMaaUNVe8tUnJo1dEUAm+Ai/WWjuVYIvZQHbc+SrRiHEPRAW8IE0+YMEshHIJP4q7/uzrxWIVfif618PCGck30ADDVaWqNxwOsv6rcRXE72vbdREwyVsc78AEPrqgn6D+faHh6ukXdMBOgfyCw6GAfG1kNZZaOkQ99Qc+etFzpJ+Vnt/j9BxF7UuoCzm74h84q4N9zpEvuwQ8xUT1Zvk8xIPccFMlVs91L2/kZ5BvcxqO0u+Wo9fRCCEy6HSVX8vW9h+UkJJfTlC+i8S8CHO/9mXDa9X773FrYdouV+bsDBULxMq7enQFT0l+VUUM+nLL/L8JPHnHg7UgQKK+y30vsc1izZGJ7MvsbhfrjmXC1gru+TfyeeGO49LfLGmG5tW6ALx82cfrf3ibOjvsItR3Pp1op797X2NQ9jQcXsiRT0ouMOF6nNXqswBv8X6zMb4rOXfsx7LhEWT3a+hzL6o4n6ByJ54eR92o36KKaa7K6f/AsmI5VFCvcSB45Ef8fdIgIt43j4poXbYTfxcWGaeGf3jmikEmVzkP2iPup9NlP7tzxYtD5Qtrg0IzY9V58c9h8SzJLY+qItW8dfG+LSBsvvFJnGvtdH3e9z1/OQammYJbX0BdflFH3d43H2eVFB/18dk7gtvxnzFKNWWgcJeFWVTj/LWbeM2CWQnkE38xazzlz2L2z5TPWATHj4rN++28195AZnBDQh4DXfGiNob5MNLV01AzPsrBIfZV53litOfnLZhfRdfrBgGe/7OLffrNJWt4PqoKzaHybsExFSG0HQTkiGBBQhQ/C0ALd8lFH/5eD2ssz3xxzf5O+91EYV7j4bjxKfdIlNBQk4S8xRnqxqEDvLnaghc91DPsXj4aoxgqveBQLr4k6u860t63L1Cq0nft/W2dNv53z2PPSSLXfEXiQR8SATualnFnK4BRu7QoI3+4Q4yBxxtepFl8Er5vf/xvqjFv8fovEz7tnv0Eu65IYE/E1j/RoPGbpgqL3+gBFLEn43hcUl+kirjRPpNhDi1UHPno+2geTF3AsbyS3Db+S+/RExxYQLiRcCEmLRv/WcDIuDmaTE2EnDhLHjhWgj4E/zlXNdIEMparFhRJv4nyby5zI3jLnoq4EMM+b6uo/y8iUHcvM8VmfTgk/3ZQ+v9MCaa+MGTIYAFCcSLv9hJ/MGFgBfMb62XZZ4IvSKrbjv/FRWLyS5MwMHoXdWNxDWMtACOhTPghesi8KuPxhPTXfuuepwQhLIuW1aRz58phqdt1PdkoI8QueY2SvsNdJM+h7gKO5gmCZDASgjEi7+VZMVESYAESIAESIAESIAEbpsAxd9te4D5kwAJkAAJkAAJkMAaCVD8rRE2syIBEiABEiABEiCB2yZA8XfbHmD+JEACJEACJEACJLBGAhR/a4TNrEiABEiABEiABEjgtglQ/N22B5g/CZAACZAACZAACayRAMXfGmEzKxIgARIgARIgARK4bQIUf7ftAeZPAiRAAiRAAiRAAmskQPG3RtjMigRIgARIgARIgARumwDF3217gPmTAAmQAAmQAAmQwBoJUPytETazIgESIAESIAESIIHbJkDxd9seYP4kQAIkQAIkQAIksEYCFH9rhM2sSIAESIAESIAESOC2CVD83bYHmD8JkAAJkAAJkAAJrJEAxd8aYTMrEiABEiABEiABErhtAhR/t+0B5k8CJEACJEACJEACayRA8bdG2MyKBEiABEiABEiABG6bAMXfbXuA+ZMACZAACZAACZDAGglQ/K0RNrMiARIgARIgARIggdsmQPF32x5g/iRAAiRAAiRAAiSwRgIUf2uEzaxIgARIgARIgARI4LYJUPzdtgeYPwmQAAmQAAmQAAmskQDF3xphMysSIAESIAESIAESuG0CFH+37QHmTwIkQAIkQAIkQAJrJEDxt0bYzIoESIAESIAESIAEbpsAxd9te4D5kwAJkAAJkAAJkMAaCVD8rRE2syIBEiABEiABEiCB2yZA8XfbHmD+JEACJEACJEACJLBGAhR/a4S9eVk5GB2XYJoltL85m2deXoumA7T3iygYBgxzG9WjHsa/8yay6PkOppcWWn9vo3o6zZjIPeOfsdRrO82ZYnjSQHmrAuvXvFwX8d+8NFd4/I+N8XkH9WcFVDLXtxXao5IWzE9bqD6qZmCuLuJfEiCBdRNYvvizx7AOKyhuGTAMA4XdChqnY9jrLhnzy0Dg/ogP57KF4m4LQ1HR/kxgvTDd+mce9Fdf936P0XvXRG3Xq/PZG+P7wz9DZVvrKfaXNpr/lmGKFwFjjvhb2H83LdIU1p5XZ8SzMvLP3EbpaQ2t0yGmf7S8rofovl2kvmlprGDT+a+HzusailmYryD/lST5Z4L+URXbpvdCWT60MM7dmNkYnzZQfiSfSY/KqL8b5nguORi9KcIwWhiupJBM9CESWK74+2mhKm+S0tMSSrKyi4ea+cLC5CES3pAyOxdd9Ob2fmyIsbnNGKFZzJXyAAAgAElEQVS9a6D0Qathv4doPTFReLkG8SftnZ5W3AY8u/jLXdAlXDBB9+ShNCETdJ9mEH+37T9ngq4SgX91MZFCz7kewXopGn0Dxm4Tg+ug+ycfN7G+KUE7R3AHi7KZv8QzZFe2XWJg5I+NwVERhnjJzDyi4GB4VEThWR3N4zaaB2VvZMIwUDwaIst4i/ti6wpqir/NrCh306olij8b/YMSmufTQIWenjflm6CB8onWON9NXnfUageDw3s8DHPVxo5h3P7w19fm5ou/H12Ujx6K+MspRG7Rf+rFwdizEJw0MEH3mewVDB1T12zay8bwdXbBvbkPVNGemTDMBgYBoTdC+7EQhL2Qn+JL4lx20DwLtXs/u6i4Yq6KXtDZ0UR+D9DYraDivsRQ/EUBcc+iBJYn/uw+2h9DlVxaNflQ9t5eM94wixaG18UTcL61UJw39BV/6Z3YO/1U3QzRddnaDDsSvTZFTwyHU/zFE7pF/ykhFxV/gH/MKKH7Y2a62r9x4u/oHoi/q7bXaXE4CHRmCPqjtzswDBPNi/n9dpP/JpHrAfEynoWRuF9LaF2O5fQAir9Z7efWTQksT/ylWfLT8t50Qm+uaZfw2JIIXA/QdOei3YNhmAQkG9MI3qJ4SECj7XYw/lD15sBR/GlctM1b9J+qw3HiD9IuMfzbupzZq66h+JsxWdbW6FgIvPjRBOdLwz1mvooKw2z5yx7pOe3h5LSK0tsRANWDTfGXjS/PykIgRfyFo99sDI9DE18D3eEp2f3yxJ95G43O9Rj9d3WUt7wbx/luofGs4N68hd0a2l9Ds3evxxho0WrOVQeVLQPmo1pwzpw9Ru+o5ge2mO4k3kFwYrZAkjd/hTFH+kn2/u//69nuzhlyhxnE26Yx6/n5PZGReWagUVEm4M8UA8FOzd3cKqImImhDyOBG+LXdyEOvcRJ1RbIRUbfvRjFvv34u0Y2M+arGL1K+LL2c18NAZHBpv4H2QcOLUJT11U9Xq7dDt1dDcgxPwNbFw28R+FT2J4pXj2Pqhh8ZmcA/HDz1rI5OuL5KetOLDurPt2WAQwHFvQas/5Sjpuj/W5LHlO1Zeh5k4pG6WELNL88QLb1uaQ1a0D/Blw/7+wCWmEj/QgxzOhi9q6BgmNj+JzicNr1oo/ZElmtOBHeAgairxxbaf+UoZ2b/hcrsll9vmFVjLVlr9Sda2b09PiuNnzrX/lz37tscPX/2V70+mNh+UkPrPH5kBtMBOgeyrs4J0sviD+8e8fztPm9lvTQfVdG+SBjnzHjPKyar/avmigbFtp/njy5KwueP2xDSLO9/7hw+swrrZ8qVP7qo+PPkVX3S61jKtTxEAhkIxIu/32P0P3bRfO5FJ1VOR+i/LKJ62Eb7dQ0lEdQhKv9uxsp/2YJp7KB9Nd+iYOMq89Ebl/B2zMNS5TK9sNB9p6LPWhhetVGWE28be54AFN339c9eI+lc9dA7baHslq8C62sPjYOGH8Xpn/eji6pZRP10BFtMzv5jY3Rad4cJzCezycB581d2OxnTz2qv/jBWeeB7H72zjhegE+pRcM9xewxNlN8MMHVHNxxMLySbrRp66sF1PUTvtIu6jHRtnY/QOaijfdrH4FztzzZEkitfvyCzYbHsPSAiQMRE9aMckhH+c3vFggJl/F5OVwg33v6cndDDWImH9xZaz8uov26jfShfmMJBTz/66Bw3ZF2LaWRE8NRWGe1LKeCEWHXvxwLq50rUCQgOhm9KMHeb6P+Sw1DCd4/FvVNES1/CR4nacHk0lpHNnz3UtkxUP8i6DgeTEy/QQJ/3ZJ83PHEZvh9tZYti62B01oP1Rkbi7lkYfmqgfqju0zr6bvG8ifLFlz1MZP2bnKl7rBNqdCUDU+c1QldGfM+N9lWFzuO/64EbDOA+B2ODihz0///23t/FjaT5H58/Y9IFJ4YLbjML3okFF1jg4FlwcAsOjHgCIxw8CAdGmA8swoHR14ERFxxigwNtcKANDrTBgTYxaAODHBysA4McOFDgYAIHEzh4fanurpmenp7RSKvVynt14NvR/OiufvWvV1dXVT/TRv12bXFW7t9i8scTf3685W/cdk9kkcbb9l+GaEWX6CuHknw/JCJSD2uprTY5NbzUWq/aK3vRVr0+eLzp01j6UDs6tH/lhUmIwxOHhFYda1zQkt8+Ml4+d7iYJUmpC04vu82evMP9KGhjsnznN/ksVooAaud30c704eQVfaGc1Q4tZQO3AWe8cT6Tn4LAKgj4yZ9JgdXb+4+6GPNkT8/Yqzeo5sRBKvSthNzwlpxXcXU0j/ODmRq8w47VidkeYx+N18Yb6/sCs4u5ds2PZ9oDzGMLwraN2bKumP/K6S+RFwAPxr5YZ9o42yUfxjbswSDnoU1tQoXPcIi/toMJUH85yYQw4DZUzc5s9XypyosmQW9zoJvvaTHSwjijufY4xRgykJedJwdnMDbvh48H2fiCydZ7fhuJFzv2dh6gvZebpw5tYI2D1V71RN/I2IIRIVTxG4O97CTDk1Zl8qflCN22/oUIYYDwfh+XDDKn7ZK/ZMuKyZ/5IJ6grbQnDfTemRl0McP0ky6zKldOs8JtPTvuxO862A9CtP92ZuKvIzTVYtHJm2V2/65af+Q8Q+l7+omqw5+bGDkeum6W/JvbcPCfAS65GPEC4xfG2zck2y9+oL/ib7JExk8UWHt4YNtlfx2jFQZo2F7ytJx431ML/L3/pZ7yq9SHbtO0YLjMaPyjv9n5z66P9fo843Ytf7ktF+0gLHvuE4rHkkR5EaL+yhfuhUj2gVPX/jr1ZSP3BIGqCJSSP7Y1yQ4uOun5sdGK5AZ7J2vqKGEL44qDoPP1Bn6WdJx4go7S8mW33RKyZBNeI0l02lRaz9xEQ8+TycaejFfLf/X0LXLnkZfESsrjCfXiJR/GezYTOiWpCe3t5ho880SUJTEAeKB8WcHDdI18SSzO29dOE7HtC/YO/s2JP3kxtFbbALf/VcmfT474zGzdOf3Fi7/SlPs8AZl0hui+pwIZT9D/VAyjxHVRkfzF5x1F9DvvbPAKrjltp3ypvZI94VMapixe2XWfCV/lN9W4roPEecxgEDpEXIk5x3DdbV+nmP76izF5QbsjHo3aeQd7K9iEJeVSsf3q2lyAiMKdGg6e9jHx7JbyN9n2FmP6ci9LzKksTD6sutdj+EH59qPCYZX6KBtvtDaUFtyJzGv2ead6NvuT2/ImyZ+RMP48xSAxwQhx+Ge2Yolk13MhYErmkM2WXFL7FyGwNvkDayFcu6cMeBRsN79izbzi/ODJUGnkklVSiQo/N9k4CSaaB9/kkGoSksGolCyl7+dIjsqWO2lgdWq+VyX/ddIvG2w1FquSv/nvdUVwbUxsVLmO7MmZJ6IcLjyQLq0nYJ18SS7Ou0heW3Z9vcDoid72D+830T8zWl33Rc+EqV9hEubUqXnfK8dihEPVnrPfMJY2blyesj6g8ojGaFGa1oTuFiHzm+ui4vtam+uStkyK6Q9OO1fP3P7ddAyGufcpSca3pN/zuMPjkDedorxTsTNXa9QfjYN57V+E0ZNqZi6cf1Ln3nLwW9m//I23vfGric2xwTKp+wjjp3Qv2x75s+zfFeqjdPwE2DOf2+y6fX51+bJtqRQzTNFRfdVtsyZXbutBZ+2gy2w6Efxi7a7QjhrFecwWThw+cnjIjU0gsD7544mncPDQ6uvWX/mmvAnBq6fBE4B/kOPtSnswKCZLnJa7TZpKw5N5mh5/UyV/fneV9DdP/vJlSMtHVzzp8ABu37NJjPqKB8oKk9o6+dp5p5irnJf8L8b8rKeceRTJunOQN0bfJPlLCE22HXCZbdz0vQr2RIxtogVbUmR+PyEA5e9rOVjLWP5uouHN1TO3aXciLSF/Rk6/5tmRg+soly+9V5S3kwb/LCN/BfWnwnYY7V+yG0BhQrxbwZxR/m/Sp7zlyL9Pd/gbb7unow5/vYu75CR0donoXIchSvssY+PTMDv5rVIfS8ifq4Hk9u8tg1XGVG5Htmv5yaY6BW2f25xN3FaVI9l1SscDxqJs0aefuX1p1czlfUEAuDr5K+gA85Mmmq5h740gzoNc2slsMZj8JQN36eBF9il6BZmxnbES5A6cbpWtkv866W+e/M1eaUefoGCrNpl0LPshvmeTGAULE44Kk9o6+VIenHfRBGJVj+cyskigY4zOg3yOLLEmxGlTZeSBbdycbU5uLzZu+uSGCpoj1iZ6tzw9ReW6yJXH8y7FMzPtoBKunHaunrn9uxNWCfljzcuTUcZ+1Csl15GDq363KG9vSsnWqLe8BfWnUmLtn7KD1VvBOXvNgiz5Nrdhb6gXfsn5y9+48s7/bGIv0E4cySeMU1L3PNZkTV6S9zMXRhNWpT5Kx0+AbYB5/OQ2tspYkxHtmn5Mj/QYyE5+djZsP3m16BVml8eya53/1UPvte9fB4fKgauBlno+0MdY2kLJtSCwIgKVyJ93BW62W/Zf5+1yyLC3bRGDFWXa8Os8Afg0KbzNmjXM1hOyO1lpsRJbR+9AaLZSLIP8VPtQLf/V0988+WNbr6JQBpow23aNKQGzSYxCrJAU5Kt5nXwplaJJMJ+DuXMxcBwkAERjtMn+0xqMXS1Fmt4a5M/0F/eUGx/5YxwKj0T8PMTgnKRJNRS+SQqIMD5OjfYT7VxCANIS+a54oi706v8wwIA9+Avrmfuf25/KyB+falFzDN9ZyhjT30d6e4zzDbJ9WL9ZlDen4/wtI+8F9adTSG3/Wr/30cz0fyePgp/chq9M/hgP10knR/5SM4usg1oqYPTXwHher1AfS8if3uZNxw5u65l+l4pgAiqn71uPrvfS2CL6CJ4mhhUWZ6US6rnCl37+M27HzmIz/6LcEQQqI1CJ/AXuQKKinJMXmjugA4r4OV5eiTTRFL3jPFlMnl/LBXccj9u+8Xbbdwxs9YTseZ/ko+N2lJOIE0aDnhlVfk0F5uTCrJj/yukz+SuQNxmM0+fxl0WiUfGRj8SRIMgbJPMzd8Lgc0avQv44bTKgdw2h+ZmbL6HME6erAeEayP0lh4pcmzbG6Db5Y3syh+hHFDJI2QQ5Nj+F5IGM8Pe9Z4L68ddetrTFs/eoh8ln9vKMEX0YonU/9U7nsgcU5uS95R38PcL0zUH2FIIcMYiw4PAwOZCoPU/RVRqHACrkijlzll6NP43QemLZJ7FmzMaPXvw8MmGAXMcCQ/4Kdg6UdylhHNbRppBKDMG3OSavGjhIjoqkSVRrafZfumelbsrho7j+EthY+xcE8C2Ik/cKLpJ6zGlOCz4oavdM8tw2y7ECDfGPv8WpM1YQovFmlowJlGN00cPByzSIcfX64PEoPzfg21SFIMqeacvEcrU+X4zKpp6YduUSedMn7DBHOscYl6d99E+zHs6F0tDBB6EdzqXwTarpwhM+yDO7cYfGiT5mmegFZenJM0Gg4rYvxQtLYtohhj6v19kiIz2E2m7YQ+2XOuruPxWo9aqrpXWqjDtOgPBhFxOe7L6aOGDuId3RDD1zlqY7IHLuyUHbd5oYfDATLgXkfVZDXluzYv40sV7QcWzk6Vch/Qry8tZ27dkA49M+2r+ZkDffL9E3ZU0nU1NKDucTWuc1UyBWis/mYvZ9geGTQDmJ1J2Azkn8t587mFjchLHM/V0lX/o4nmOgYpgFCB4NMLcISi5tvqEmyBD1l2PMzYAZ/UOxG902zSQsROPFEOPzEfpPm+hdjE1g4xCN//XQZ7vW9z19aHvYQPd8jphjQFIMQTs2IsuREPO8jWdMBFMtMjSuqR2Qqw0jpyqzTa8C9Oq+dzf0HBzPdrok3+kYw6Nu1rvZkosvk7aoiNhd3a/v7SHIBalNSVjtSR+jc0q/idafUzNxBag96aB3rMNbRDRpKQLtkFbOGHMVWzQtd4pDro+pWIT6ObXx6ecI0WKG4YsmGkxen3TQ/yNLcJKs+GKN+uNPU9u/NbRUdhsOW8vPe1WZRhg/Z9JrhVeiOjYRDFSbPRuiR3E3j3SUguBRD6PjLvom/iOdIqFCN6nxpqbrl4K6u318hfqYvTbOVDTe8sLFjLd7T4zGNgUuDR1WZayxv7vua4q3dy9A7cVYB++P5xg9q3mwAWA0hUEmnu0l+hT/lBYwx1MTLxVmAddA7wOvaJYVhOeQvOaPF4/UT/YzSodlacrzfzsClTR/B7+N09MKKAr/Q/v0AA0heXElg4ga1NPBOhnAC1b511sJ3HE6GL3roUkTlxno0lMKjAS8as7I71nB0uu5qPhNdE+d0CEq2RXyt4Gokn5Veb/N0FdBrffQODIThe9bV+uQO9mhgdZb56QK1iblMONyZ9tBTjNol5mvq+RraT6S9sUyuOXgdPnvRRd379dR55MjFGlq5h0+6P3PY3MijG73Orj1FF112sQQU15McNqLqSI9dXMqSuHJL+Z9Hry9uGTawB5qT7oYffRNGBFmx+lJLOrkmjPfmaLA/K+2iuFGJ9YMvGlxQay/n8foPqkZYnsXjecDzHyhm6idmWC+JENfaSKpHeyh8bSP8UfN/rnMmXrz1lmEy9Nu0mc1lr7YaKSqyp6o0ng+xGU013k/H+TrySpe5nLF+st8+66DwNG4ZZ7nfvj7iMYlP9Gnn7PZgd230nGKTiU6VO2P2kwPU6qreIbe/RB0ykbfIR3R+0F6Oow6GSVdFKV50lX1+lhcDNF9wiFrqO+00C863UMlfVntxKSsQNf/y7SrvWTOKMCG8b3fwyzponRyTXoKFO1o0Ekr7eMx5lUWwknpuJ3k20R01sJesIeDXxvIayOTBORCEMghUI38nWRjEeVS2ekbxR1nO2LfdP7bKaXksh4CmggVeBWul6R8dSMIkN3fXnab/UbkkEz/lQjQNnKBg96/Eg8p9FIEhPwtheiqLwj5uyqCt/l7Tf4qhNu4zSDchrJRgHfX3vE2lEvK8EMgEJ22ZOHxQ9TU7ghZTv5oG4Oise+M5+46wLHRt2Ocv05Sa31z0/mvJbR8tCUEFPlbMSbclkSTbEoRiDC/mGCmbNrI/m4/PbWi9Dt5KAhsGIHPQ7Rfuc5OG85Dkrt1CJSQvwjT1/qkh8qG9LsIz2JozvfcR+d8JUOLzZTmpvPfTCkklY0gQAuBEOF9YzNLDje/eLzGN5KXJHKdCCQnVRg705wTynVmLmkLAgaB+WkX/Xc/slmWVOVNIeAnf14j/rxH4k0JXTXf6oblVVNc7b2bzn81aeXt60eADMAPzbmtZQ4c1y+J5HBFBL6M0b4fIiDHn9cFTihXzEI+FwQEAUHguhDwk7/ryk3SFQQEAUFAEBAEBAFBQBC4UQSE/N0o/JK5ICAICAKCgCAgCAgC20VAyN928ZbcBAFBQBAQBAQBQUAQuFEEhPzdKPySuSAgCAgCgoAgIAgIAttFQMjfdvGW3AQBQUAQEAQEAUFAELhRBIT83Sj8krkgIAgIAoKAICAICALbRUDI33bxltwEAUFAEBAEBAFBQBC4UQSE/N0o/JK5ICAICAKCgCAgCAgC20VAyN928ZbcBAFBQBAQBAQBQUAQuFEEhPzdKPySuSAgCAgCgoAgIAgIAttFQMjfdvGW3AQBQUAQEAQEAUFAELhRBIT83Sj8krkgIAgIAoKAICAICALbRUDI33bxltwEAUFAEBAEBAFBQBC4UQSE/N0o/JK5ICAICAKCgCAgCAgC20VAyN928ZbcBAFBQBAQBAQBQUAQuFEEhPzdKPySuSAgCAgCgoAgIAgIAttFQMjfdvGW3AQBQUAQEAQEAUFAELhRBIT83Sj8krkgIAgIAoKAICAICALbRUDI33bxltwEAUFAEBAEBAFBQBC4UQSE/N0o/JK5ICAICAKCgCAgCAgC20VAyN928ZbcBAFBQBAQBAQBQUAQuFEEhPzdKPySuSAgCAgCgoAgIAgIAttFQMjfdvGW3AQBQUAQEAQEAUFAELhRBIT83Sj8krkgIAgIAoKAICAICALbRUDI33bxltwEAUFAEBAEBAFBQBC4UQSE/N0o/JK5ICAICAKCgCAgCAgC20VAyN928ZbcBAFBQBAQBAQBQUAQuFEEhPzdKPySuSAgCAgCgoAgIAgIAttFQMjfdvEuzy1eYHrSxeFPIboXzqvxDL37IcL7Pcxi59mqP7+M0LwTYO/JCItVv131/e8RLs/6aD3Yw8GJk1tZeVfN50rvx5i9riMM6+i9vyq4KwpSqV4jXJ600fgpRBAE2HvQQv9dhMVpE3vBHpqnDq4rirDzr1M7OW6jcecAwy+2tNXqLfpniPbDuwiDAMGdBlpvp4iSZPzYJo/lQhAQBASBW4jA9ZE/HrCfDK+fYNgVE11i+PwAtTuBnijvHaB9cmkN9vbLO3T9aYz+6zYaoZb7VpC/r1MM3nTQvKfLlCF/y8q71aqpRiKuRaSl5G+O4eM9HP4xV9lH77qoEYkJavh//9/tJ3/R3z10/tfQxC1YnfzNTw6x93iI+XcA0RRd0xZrb2YAirHtfbiW2pZEbQS+zzE+OsRdGvPCu2g8H+IyZeX2m8uv1SKzh8Ofupgufzt9I5pjfNxG85ca9qhfPdryfJVKIleCwFYR2Dz5+zbH5Lc2Du5pLcVWO9PnIQ7NQFL/pY660ZSQtiSkCWCr0K6X2fRlAflbL7md+Gr+x4Ei4hnyZyS7jeXdJOjRXy2EQRsTSyE5/7OJvbCO/s4TlBiT401ol+cY/EL9wiV/S5D+OkYrDND+2wLvM2m9Q9TfzvBjY7uk7Lv++Jsm4mpcpur5HmFyVENwr4vpt1WEjzD7o4vWL3tqjAmCquQvVtr0ehggvN9E/3SGeWS1k1VEkHcFgR8Qgc2TPwbh8xAHW11JRRg/raNztoDdhRdnHaMpCdA43n36Nz26feRvcVJC/m5hebkLXP0vtWlqD1UntKvnuNEUvk3QfrwJTcoCw0eEw2rkj8gdLfxyWnRVyB8c241W1LYTI+xDBGEbkwzRm6H3My3U11kwTNFRGvEqfSXC5EUNQRCi8Wa2+7tC264eye9fgcD1kT9M0d0m+YvG6JmtMbfm5r839KpwrUHFTe16fwv5u158f6zUZ+gqM4AqE9qulSzG7FVtQ9to65G/2Su9++Anfz8ytrtW1yvK86GnF+TPJ5mFOqUye7OvSFnn3F7CV0mf28iyvhJjShrGIExMKaqkLu8IArcNgdtD/spqZutayDJhyp8J+SvH59/11CygfkDNX/S30bhvxIaKJ/bVNH/lfenHxfZH7wOz10TwgrwDGID477Z6Fr7IE8PycnMbKSd/eqs/QPh0LBq/ckDl6S1HoIT8xVhcDNH99S4OlZdmhOlrxzg3o7J3kbqq5u+q+VvyfNFb0OHRSqbAVgIbuFxM0H/a0MbN5LFZ4IhSNGHFn6cYKuNoZ3D7eqkMlg9/OtSekN/I4cXkc6eB9l/uVneM6ONYybLnnZgjXJ520bxnbGjCu6g/6WGScyiNMH3bSjxQyWC7/qSL8ec8Vitt+150tZZWbeHQVl+AwK43U5fqfuGWniXD1yl6T4wxt5Kxjd7TdtZr9Nu82MuakoouMTpqJk5EnHf619SJ8l7uKc9mrW2iPmO+C+/i8O0sp+nw1ysTE1N+HxZxiRe1Kv5m65HazOD5Ie6abdz4Y+pBu/egbdV7jNlvB9p43pa7Sl2Zaluc99FKvHNraL4eovcfwsIhfwX1xn0orR/GkeqpAraJHD007xsvYaq/oxEu7TEvXmB2qj3ZVX1/HqN9P1QexRmvcdcJzXhrm2z0n5X7MQtZbVwBtFfzAffrnNdzRppr/MH2mwXb8Z8GqFO7+bkHcsmp/l8F8hdP0f2Z2kIDg0/VU5Y3BYHbiICf/H27xPiPAToP9bbJwckM42c1HD7vofeyCTKSVQPrvbIOegXyt5H8req66CIM9lHFg6944uAJxPnrJVBW3rSaveiiHtZSe0Qybn6pV7+1V1lCwPnbW1WXZyOM3h4aj0eL/H0cY3TSNR7CBxi+G6P9tI3B6QSTU75vD3QRpqcjDJW9i8+zbY7Rkz2EjweYfdVliD8NtO1meIhREmYj0jY7P7cxNqQw+qdv3utknBMolZXIH3Gtc/ZoDdD6y+P+922MVlBD953nWQb6GXr39PaO2kT6HmH2O+FokQjC8LSvHYV8BCUxTB8YT8QIlyoNagdWOl+nGJ0M0DLepN2zGfpPW+idjDE54/sh7O2swnpNysBExapzekZ5nQ7R8XlRq283W48k5/CV8bh9NMT0rzZazwcYnU8w4vsPBo5D1Tr9P8b0FYXcaaB3Yer26wyDx8Z5zMZ7Wb0B8PWlBNqEBDrYqhf01mDt2Qhz1XBizE9baqsyvN/XpOTLBMNMfU/VoqJtxsx95U0MgJzQ7tjlmaKn3tlD68yUceV+rEtRfVzRXs2NN1NE5PX8PcL0ja7PvWfLNGDcBp1xzyH2NtH2OXblca/7CViyuMs6OaXfF10tJ39sAxo86GP6YYQuLwqDPTSeDjBbNpwUZS33BYEfEAE/+TMFYRX8/iNHo8NetUGZE8U6g38Wwavln6ZF2ww3puY3HoeN37MauPh9T5Hovf9lB9/iCavIoJmIGA3Me2geX2Y0S/Pf64qk5wbjgm3w2Zuaxwh7oQhhQN6l/xhMeYC2NXJgOQ4wdLR/q5I/yoXtNL1OOh962H8yWr5t855IfwtjW1uDGJPnRkuaNhEUeR3rLSp34TDH4IGeDA//zKpEtc1SgPrLSUY+bssZLabKv6he6SFPvD6CAhR5UV9LPUZEuClOXhODj7Y9FmtyLCJsyrWqzW/8roP9IMx651JaX0doKrLh5oHCelPolToTFWOrtgZzmidqN7rO7TbJfWz/6ciQ3wjzixkWRLJAi48AzVOHVbB2K7QXStx/KvbjFcYV1R5y/YXrLbsgUVV3nf/jscMm8nZ+y57b72aul5G/tP7CB34J8foAACAASURBVG0ML4xjYLIgDNbwNM4IID8EgR8KgVLyB7MFlyMPNDkfGyeKQs3X1cnf1fI39UCDSdjC2Giytl07Gqc8ISqSo4z8qcnUY/+lv8lPjAl+riMMD7B23cUTdEij+7LC1ng8RYfCZfx2mSlGkezrkD+wPJkJkrKLMXmxl9GgZYSwfxBJJNui35w4jxdDS4upP/DLPsfQt92oyKmfWHNZbc2tyoExz+FbTEKWkT/OK9M/GbdcPjYw5nqleizuz0n7y5D+4vc9kqiYe4pQhz6iW1wP/nrTOZQ9K8ZWk4jwVX7TkfEOLMcxvtd55ymV2nE4xCi7PrBIfYju+/S7BMdEw26e8Ths9ePq48pUOQ25ixRKmfHxlTWVasNX3A+2Tv6Y7Dqhf1TxiBhq7fLqtoYbxkeSEwS2hMDa5A+8evWQES37qoO/p8Q86LknQ9CrS/Onl2i7o47uha2p8ORj3eIB0d7GKL22CZSVjr7k1bxvQsu9rG5w/jnyUKIFWjZp5LRNPADbsjNR8mHtFzW5m9gQmq0gV3aeIDMkxXxdXN50gZHRmpIWKKeVSURxLozWkuI8Uiyvs3lGG2e/7JfDIh0ZYpNuZbuTKpfVxQA+zJUAGyZ/11aPxf3Zj13x+zbuyTX3Z7tNJg9Zq5Nf4Pjz1h+WPSsmf1wfWsvn7/tpfy6sb8vcwZ+GTt/uE1refBl5EZf24xXGFW53Jdu05bFYq+CRxcouU1KFyQVruj3lpHcSeTurBWsGt5G0bpIs1UVajlzfpOeKqFOw6e6KtobZXOSXIPCjILA++eNtoHXJX9LJswNHZiAqI39L8ye7nQO0cg4P26waHpB8q3+/HMUTFg9e+cGt+qRh8mTs7YnWYL2KFmBxThH176LxtI/xRwrSquvSHVx5gvRNCsXlJSWf0UZa8cBoC8vedvOjaN+NMT/r4cCc+BLcOUDvPKeKSbQgruys4Xa37vR2sG1PqfPksrrpJJOajbn6pLheiwlKNq8MrtdWj0bOnPypBilb5uL37dpJro3cmf6fPOR+lCcMZe2n7FkhtqZv1B0zjUQU56KwvhPNWnXbter9mPGoMK4YXDOBrp0ybPcna+CyWs9EBm4Hv7g2pMkbBReMSX581B/oGIJExLPt1CS3dD4pyFZuCwI/KAJXJ3+FnXTJ4L8Yo02ncLj//jdOj4MzA0FmcmOgubMW5D8/aaJ5krWz40+393eB0WMiRJ6zeguEKJ6wiklC9UnDZOojf8o+zucE4hNUOxQE9zqJwwe9VSQ7T5C+eiz6hnNl8qWO41JksInRWlv4kUUCQxw6baNYDlPW8BDDT1qDHP0zwGGoT4lgOfkvlzU3wfgwVx8V12shQTGZcV4ZXK+tHov7sx+74vcZq8xfnvT/4zuJhyf2LZA/GM1UzkYuI23yg+sgV9+076BOtnHtRZNPcxcax3wZ85q/FcYVY9+7/zq/jZ0TYEs3pkd6i9XnzMVOGatHZuA2UkT+ImMb7dv2pYKX9cMtASPZCAJbRKAS+fOugs02TfGgsuLg7yu0mRBWzZ9ijLUt+xhf0tu6xwbhRQ4n0V8DjC17cP9EStIWD07VJw1Tah8RiSdoq62hWoFX9AyDYz2B8ITnahOKZOf3MyTFiFL0TVI/ifavhcHbJlayybkY5D0KozHaZNvobB2XyRF/7KP1pIVDc1zg3r0muqdZ5xqWl8uaIwM+zNVHxfVaVuf0KeeVwfXa6rG4P/uxK36fscr8ZXwCH7nniT1PjPx565TLnhVjy848tQJzkRjT39m5I62DXH2T4vq8ozz0C4+W/DzE4DxFQcubL2Oe/JFDlLY5XTquJP3nMOeIpXOeY3g8SYXYxpUxTfARPE0MqxPmVFxuI0XkD4hOm8oBzpcvjDJhpfElzVyuBIEfDoFK5C/wRmKnKOmegSqBwAz+BZq55LWyC9YGrJC/In6/+ydmOti9ZwhMWbYbfZZMavmjhKKLHg5eZoOZFk9YxSRBe6p66oLxy3jlWnY1mS082ibX4WeCey2MbBu3eI7Rs2ZCpFjG7FZohPEze9s3RmxMLb0kxYDMafkmT64H1v4FFcP18HfKjifXdmItZ1XyR57tD/rIurYkOeQu2AM3Vx5uBxnM6fPiei1/lhKPDPnDddWj0Yjl5C/S+Lr9P8bii7XKySFHmhmtEdp/Oc14rSvb3QLHm7L2U/asDFsOBEwe7u2TGZIjX+nc8lcNHFjHRHLbdhdCunja25e2Gvce9TD5zLbHMaIPQ7Tu296+7LlcsR9ze/IcUeaOK8rblxZ2yuRhjlh5IgPx1xmGz+rVnKdy9XWVG6auXWcuE4cvf7xbjMvTPvoFCy4tCZO/sm12Ux8eB0Dyxg+DooXvVcoq3woCu4lANfIX1NCiQVANGjH0ebn5rTO7iDQAqWCdwQEGZrvMfl7pmslLxfzVgffBHmruVjL9VsFa11lRVpK09KX5CcfoowG4pre6SYvkHmL+/RJ9E0LEnmBU4h/7aCjN3AEGGWLGgUsDtJyQEpe/sUf2AHMz4FNa0RkNdKT96mBiz8cmpp02UA9x9z5ty1OA5GxdR2ct/X3YQOdkjPFJD62nPXT/q8nfwZsRBkd9zNRcF2FsPOn2nfAnKCuvjShrL3Kx5OyXPNeq/YSovxxjbsK98JZtZtu3RA51RFhYV4GGx+cTTKx/s89RMpGq3L8vMHyiMag7AZ0LMS+qV6qnvyn0CaW3j865XVGUWwmu11CPFFNOy9LKbrsXYsc2VjW0jscYvW2j/57Jj6eu6NbnEZrGNrP2bIDp5wjRYobhiyYaKjhvgNqTDvp/mPNYC/Om8DATdMw3uXa3FNu5imvqc9TIaPG+LzAyhDV8OjLhXbJliz/0TBxO3S7SNB3NYhKAuHo/rjyufJuZ2IKuDAFqRy7Rzsp/bb9MG629GGvc1AKzlh8TSQCjKSxd/C2GJhzQPjp/u33FKoUJUxY+7GFqzEeiD9qMIzMmWJ/IpSBwGxGoRP4Ofhunp0YEIe4+bGP4T1EHY02GM9B4NAZLATXkr0r+iz8tgqUmTCd/uncVLeRSYctfiN4PnFMLUkKivkxW8rbceguDNRjpxGGORkrIsfuNrw5Io8CrY/t9xwD6+xzj5DQLXdeD925dx5i9Nae93KETGKbKi1bHLgxx99c+ZopsFclhaR8zdVW8ZUPazaymsRxv9fSiqwksn9KgTlZpZh0+fBhabXVxpoP72thnru8coP8htrwUbWzLMS+s10QbaKelr5VGsaStJKhssB59cirP0yXYxR/62tHmTgPdsgk5EZpYmXVCTXgXjedDXEZzDB/tofF8gOkXQyBL8vbKS+1MacB9bdLCNpEle0JK+FMDrbe6natXvHXg9CVOK3O6zx5qT7oY2bESfWVRjnQ+WbOawaXjCsvwfYGJdSJPmekCf3Ltf01d71HdqHHEGRNZgHiG3v0Q4f2eWVDyA/rrH9OCQkdEHSSdTltS+ZKy4FHZfGbnJdeCwO1BoBr5WyP8x0YgMoNidltrIylLIj8SAqT5u5PdItua+NEU/bcTLKI5ZpbWjzSAo+MeOv+tI7TI4tbkkowEAUFAEBAEBIE1ERDytyZw8tn2ECBD7WLHomuUg7amHLusfG5TdL0eqvk35Y4gIAgIAoKAILALCJSTv3cdfTzYTXnO3nT+u1BD/0YZojmm5zNtp/d1jPbP2a2u7UBCJ4mE6rg72xvbzTs666DtO3/YfVF+CwKCgCAgCAgCO4JACfmLMH2twwkEj7IOA9uR/abz304pJRcXAY5hxvZuWWcT9+3r/J0Y1JPt2dMO+ifjxOGDtnzbv9Zz5ylfpzyStiAgCAgCgoAgsAkE/ORvFWPmTUjhpnHT+bvyyO+tIrA4a6MeBgh/OkTvnetsslVREH0aY/C8ibqJ8UfOHnv3DtB6PcQ0f1DIdoWT3AQBQUAQEAQEgTUQ8JO/NRKSTwQBQUAQEAQEAUFAEBAEdh8BIX+7X0cioSAgCAgCgoAgIAgIAhtDQMjfxqCUhAQBQUAQEAQEAUFAENh9BIT87X4diYSCgCAgCAgCgoAgIAhsDAEhfxuDUhISBAQBQUAQEAQEAUFg9xEQ8rf7dSQSCgKCgCAgCAgCgoAgsDEEhPxtDEpJSBAQBAQBQUAQEAQEgd1HQMjf7teRSCgICAKCgCAgCAgCgsDGEBDytzEoJSFBQBAQBAQBQUAQEAR2HwEhf7tfRyKhICAICAKCgCAgCAgCG0NAyN/GoJSEBAFBQBAQBAQBQUAQ2H0EhPztfh2JhIKAICAICAKCgCAgCGwMASF/G4NSEhIEBAFBQBAQBAQBQWD3ERDyt/t1JBIKAoKAICAICAKCgCCwMQSE/G0MSklIEBAEBAFBQBAQBASB3UdAyN/u15FIKAgIAoKAICAICAKCwMYQEPK3MSglIUFAEBAEBAFBQBAQBHYfASF/u19HIqEgIAgIAoKAICAICAIbQ0DI38aglIQEAUFAEBAEBAFBQBDYfQSE/O1+HYmEgoAgIAgIAoKAICAIbAwBIX8bg1ISEgQEAUFAEBAEBAFBYPcREPK3+3UkEgoCgoAgIAgIAoKAILAxBIT8bQxKSUgQEAQEAUFAEBAEBIHdR0DI3+7XkUgoCAgCgoAgIAgIAoLAxhAQ8rcxKCUhQUAQEAQEAUFAEBAEdh8BIX+7X0cioSAgCAgCgoAgIAgIAhtDQMjfxqCUhAQBQUAQEAQEAUFAENh9BIT8rVBH8ZcphkeHuPt4iEXF7xanTewFe2ieVv2iYsK+175HuDzr4fCnEN0L3wu34170cYzer3cRHk1//ALFC0xPurtbZ1uWL/pniPbDuwiDAMGdBlpvp4iuUsvxDL37IcL7PcziqyS0xrdfRmjeCbD3ZFQyXkS4PGmj8VOIIAiw96CF/rsIWx031ijarn2y8XazawXcoDw0fvafNrBXefyMMXtdRxjW0Xu/yU50XeluEKxbnFQ5+fsyxAENwpX+1dDdaMO4HtRnr/QgW61MuuztvyNc/tlH738NPSk92j3yF/8zRPdFEzVTV7eS/MWXGB510Lxn2mTlwet62tKVU/00Rv91G41Ql2fn6mzL8s1PDrH3eIj5dwDRFF1Tz7U3s/Wh3mnyN8fw8R4O/5ir8kXvuqb/1vD//r8tLhrXR3cnvryWdrNOyT4N0PDMlY1jXb9Jkl+nevFKZP9eC4OPywhVhPHT+gbm1wUmb3voPKnpOb3y+HldJO260k2QBmjxetxG40n1Odv6Wl0uznto3tvTmN2poXk0wuU3962C34sphq9bOLhvFrSVMS9Ib4O3y8nfpwHq9zoYfy5onN82NEBvsEDLkpoeBai9GGNhF+miawhuF7YuKf4yQfdhiIMTo7WLxmhR516B/C2TZ7PPY0ye7yiR2GBB47/bKw5eG8z8GpKavtztOtuKfF/HaIUB2n9bHfMzac5C1N9egfxdQ31tKsnorxbCoI2JVeT5n03shXX0P2wql1uezs60mxiTFx7FQtjJ1C/imVrU1I60Rnt+fIAgbGH8tbieiNzyAqH4Ld+TGJNjj9b5Qw/7NI/tEBHxSX+le9/mmPzWxsE9Uydrzdkxpkc1BMSBvuhOGn8aoUWL0ntdTEsJYITp6wPsEcF/1MXw/BKL0vevVNq1Pi4nfxdddM6tkSmTRYzpy309CT8YwFnbZN7cpR/TNz3kppIC8qfk/jRAh8kfpujuNPkDiNySVnPntEibbARcX7dk8Nr1OtuGfESEbn27zfQB0uZQX80uODOvyI+lCOxMuyGt35PRUhOFxckBguAAw8+maEahsF+k3f48xCFpw5ci4Xnh2wRtn4kS7+jdkvHTU/L01meze7kG+dOLswYGn9Lk1NWHntLQh0/H/vr+donBYyKdNbRO16o5J8Pr+VlK/uK/hxgXGNyQ9kXZ5dgN+Xpk3GCqMSanE+ToLJMJ70A8w+hPttcT8rfBylg/Ka6vWzJ4bYNcrQ/2dhYUbI5xqxctmUqYoau2+4X8ZWBZ8cdutBvacamjt1RbyzszHWuHqWxOIXvVQ4y+rAiKej3G7FXNv0v1byJ/ayts5hg8CBD87FEWYYHhI1q47XvqnEw5NPHrvisgT+tU5zV8U0r+CvP7MsKhGrhCHJ7sLrMtlN99wGTCS/7sl8s6qv3ezV3vOpHYCDJcX0L+NgLnskS20aa2kceycm73uRlLlo4525XqR8ttJ9oN2/rdqeHgaR/jj0WTPpMGm/CbdhB2nR0p2nJsoPMup6qoVEXR3x1tP+rTeAn5W47hYoTDkl2++e91tVPhamxnb7Q95ZXslJdLt5E31iB/zGwDhOuqozciOieywOjJHoI7TYxYlc6Pqv5lMrF0IM6Sv/jjEO0H2hB070EbYzf/mLxv+2g92EvtBhOZyCagidodWkGEuHu/ifbrFtrJFnPyYuFF9M8I3Sc1ZVcQhHfReD5E/xml59/2VYarbHga3sVhznA1xuJiiO6vd3Go5CAZD3GXiL5J32/oqj0WDxKjWI+X5tdLjI/bOPzpEENayX67xPB5Q6d9p4H2XwWLiOgSoyMLp4dtDH/TW4SuzYqqj8RTlAbiDjqPe9YquxDK5MHivI8WpxHsofaki9E/7mCucepZHnPROzYKDnH31z5mK9h3lE5giwl6T+oaJ2onv3YxSgzEeTLRdc5OTLb2jNNWz5yJYHl70LBwGna6CWBFF5l6CxD+RG1iggU5c1j/cdose/rXniCtD6zLKvUdfzYe+mFBeouJ8nxUbZwGe/cfY7Zy+42ReFVyGkp2Jn2evHgxUzpukDOM3ScI2zqar/PYUh9L+w55T1OfGGDmNGeSc/A8jWJg4+od11Q5IlyedlND+PAu6k96mPAmiVVPJO/w+YEZ61KPZvuVVa8rt5scVv52iK+XmCivez0+xR/6OLhD2DaXaN5Im5e39dt71MM0Z8cXma1+284zO6cwDvG7DhpH0/wuFb9Q+DfG7Ddta+a25aT/OuSPxi6KEKHmId/Y9W1eHJGAnFesOaj+pI3e07Ye4wtlNA+uK91Mvn58M6/4fjBGXs0foLfvAwT21i9/E7YxWWH892W/jXsrkz8yPlXbveG66uhNFysdTA+T7dkV81iD/M3+7qJ1NMT4fIzhC+MFbNs+fp1idDpEx3gsJk4jRjRaISjybBZ20YeB0qa67xWVRBmGG5sClUS8wPiF8eLKkT9tuFp7NsJcv4z5aUvbLdzv6xXnt0uM/xig81APZAcnM4yf1XD4vIfeyybqRABpYrznqsG1x2LjzRQRTezfI0zfaDz2nhmbiI9jjE66xqv1AMN3Y7SftjE4nWByyvc9thXK4D+ALffizKxoSRaeLAkkZfhdQ/fczGwJHgWTfg7YCJMXNYQPu5iwca9x+AkoVM+fTE4jTE+HGDxjj7kxZm9baL3WbYHvhy885gW5PPUNnsiSwdm8F190UbvXwuiTbiSJsbHtEPA9wux30yeDFsaeQYeMytnAXCddoT1YshbJZ72SuYw/UVuuoXUyS9rE7ITbm99QetU8qtT35dkIo7eMjacdkD1VaBzAVNu1+tDPXUxN38TK7ZfayAhD7o8Z8sdQ8bjlyLVk3IBxgjn83WCLGMppIKDFuG3cP0OPxp5HfVyaLrH4q60N/a1xijAavkqjGEz/aqP1fIDR+QQjvm+9r6WfqwV3+HiAmSE4VOcqMoQ7LxDGdxroXRghiCyoMWYPrTOHhTI0K/wtazdV22H8YeSMTyM1PnFUgdZfFeT8FmHxcaJDgfFY6VFIaNJQT+3IjM1fJmwVjWX3u1cMTVRCepikHI1xedxG6+0Ik/MR+sYLODN2Uds/7ZudPlepQG0sVM4oqqskY9HBcvJ3Xenm2k4JDrl3rRus+QuaGOVIvEX+rL49e6N9IMLnY1zaSgSlaBnrKAZWFjd9uRr5Y+PJIESlDrFq6S66a6UbvRugd3yFeGCrkr87B+h/4JmBCjnH4BciR4cYOSvf+R9k4Bs4mj9t79M6s9MAyI5Sa9yWAGfqofE7ExJ+f4bez5qk2URCGa7mVjBsfxLADkXAnrT7j7pZTaaZKKks9vtKzZ0zdGY8QsthiFe9e2geX2ZWtKxCzxLfubaryE08wOy1cTSyyN/iz0ME/9fHJUOh/pLdhjO5Zp6nP+j7MPAQUDKaVoN5LWvfwR5z9zuY2INDPEFbaY+q5UsSeCcwRWbzNiVcP0EGF2Of4pMfEUZPsgPYKu2hUL4UuuyV8WYMn+fJ7/z3huoLPkNpLwbZlDO/qtf3FB1vfRAu1FdaWbvmeIKOqu8Q3fd2lqu2XwA8XloTRJpiAfkzLxSNG0ToctiaeILhfav9mzEt26d4fLBtzkiTaKIY3Gk6YUe4H2cnc9Xnc9oNswNDC5N/uJSagDZPHfJEUSSoTlxPWP5shb+F7Wbldsjj4T4ar43G7fsCs4u536i/TMZoZgiuJzKEiZBBizEa/S9/ayAID1MHENBi2v4NzE/baNAOEZGI11XnuRLSw+TvvrNbxWNXbgsa8Hr8v+8izC04CUezu1OGkXl2XemmWZfgkL7kuUp3VfLzLMD9M0jGOe4rAe7+2ku3/hMlxK7slKZFXYH88QQTYP/lOuroNFP/FbnKWwPx9znGFFBZDcR6+y23repPaPW7q5I/z2CuB6HsIEmCsHrYOwhbq3It9BTDpdpLDimQz4vSyHcm3YjDVzkf50S2wNYYeCcNLd38WE/eaaibqTJa92lceVC28y3CCJyniXdGucXnHaVhzuKm5cC7jtZCWuRPe/3to/1Xln0vToYVtn3NpPiL32udyWZmRcwDqCWDlo4HDWeCNaL7/jBWNmFX7cYzCIPzdRYa0WlTYbL/2qln0shktJArtocicuorCPEII0cmZAu/+3WEpiJieZLtw4A/8/2tXt9FJKuIFDIJcLUcTNI9/c7TfpXMXFee8QJsiF5gauIbN7hPdN75EHHufRriINxDO6Nd47bplqF4gkz6LJu0MDl+aQfFcvLmnxdEDvIL4rTsLsHmD6v/LWo367TDXFmri5F/MwmDll/AwY7z96CNYWLGQaTiMGNHrxZqQQP9j2nsSyaO+UztO8V1mowhhWNXfuHqxdksgA9+u8wS5Ivhkq3yVM7rStfKYf0IHYnCo4bO2UIrLJRJBm2TayVLnRUwTJwDS6ubCJFyJ1txkjy+oYuK5M94DtHAvTS+zZoloUGFtwmxwOjxXRyobdUJRm/NtmNmhbRmPr7PNkb+8hXvG8RJBB3Bn1ZzdTTfjjF3Fsc+MdW9pJHlOyg9z3cmnvx0Y3XtQPRvKy2eyHy2h7xi5wmLJzc1oRekb018yeDqeq8x/slgVDwBKwxy7xNb1Cc5UHlUXKWLLAksxJMecLksWTPvc342GeOyJzLzF0UTLD/P/83XWVqP/vrSWNtkETwpZzQytL17mG4xqaxXbA/eNpUvg76zpN4SL7kA7oLBh0FRLup+5frm8lptXCXA5C9P0rUseWJSvf0aybmNeNtVkVz6W9+4obeVXOJm8ir9k9ryJhEaMn3QyOKRM1cvPOH7xgdHBi5DWRv2Lu6cdMp+5uRTL6/XDgvrt0yAkmccEcNt60WfxO+7qNs2ZDCLUmtxrndJqrSB4jpdTv5sm0QtrR9no+0lk4P7TfTPVteSXle6KcYlOKQvFV8pm2tjV28ceiafxmZ3wCL23Ncp+kmmb+mkk75g1WVxptt5Uon8KdsjNcHX0L3IblVuSkxa1XY4wCvFF8ysWIFEhkTNuqmcAdY8LY+5VdyQ/I24SPOnZY8/j9F7ZCKHB3s48Bltu8VMGpk7mekXc3KY95MVipue+7uM/PH2EJM/865Xy+Omm5AIT+dgcpUQKSZQee2LSjb3PmcWYXbcTuwTw/ttDHPOGvyu9ZfT80x+6i0f5nwvkZnTY9k95eRXnL+5OmOSVKCJdD5PfrJmNlldkqbN3ZJftT0k9VZQF0nudMFlL36Xy+pO+nw/Q2gzaft+VKlv02e5zSbJsAbdGsDVM7Md7NmS1DJ66pXbj9sWuI1421WRXFpAnixsnHT+eVKaFCl3wUfHkXPXENMvxpQiN0GtMK6Zstoa/Vy25oaWN08kit5f576/3azXDgvrdx3B6BszXtp1WJgUaQofdrKBg7n92O3K7HosH3OL63Q5+cu3cT/OVJoY87Oeco5RJP/OAXrn1Rfe15VuinMJDulLK10xqU93wNK6VjEcPeQPbCbkHQtWyn5jLy8nf4n6OkDt1Sxjq7UxKUADcRoJffbnyBPU0uypXwd4PHjnJgi3hMUNqagR+wZxN9XoU0oCl3pQ84AQ5DUWlG5eDqPhcEmAKwT/Nlh4Bywmf0xKjE1TbquR03L+atnyA0tCvpNBLh28vVtcXF/J+05G3/WRPtpJpcKCRdmukDbNj2kyWP7HCrbK9ZCTgWX3lNMRk3/m64y377O2evx+4V/eVjXOCuQIkA/SvmJ78LapIglIY6+1kgfWFr79NpfVrVe+vxr5MymX1rfps76+TWPb/VDtZrDdpnYo8jsjVG+/Ri5uI94xq0SuAnMRjmnn7Zs2yHRtykZOGezwkZJzt22uMK5xX/GWKSuEtotyyXX2nav+8reb9dphYf2uLSThWqX8dGBCI69Y4fZjjzFl43NGzuI6TcYzO131bfHY5cfZzjCySGD1EHDXlW4qWQkO6UvVr4wtKQVwzsZ1ZHva/O6fSpzrskK/qS7M1d5cQv6sUzxyXp5uxjEmJ1bEa8euQdnrmS3LnBaK7i/V6OmGmfGKckVY9zeTCd8EkUmzuCEVNWI/+ZtiwLYCSfoRxipkwLLBQtvZ+QNM+sgf2xsUkaAY098tsm2wyNURyWm2RxOyl2w1Zg2UkyKR8fLxJPlZOLgy/tZgND3SXsdJXkkqlqbWen9xMsgeo0Tvf+zrszYzWyl2Quaay1E0UJtVW6JRo8+4M1sy6NSKzwB+lAAAIABJREFUB1BPzuqWr+2wFq/Ivid+N8DIjTwP2ubVzjDNP0boPnA9sym7FdvDSuQPYLkD72Ij0qEuCrVqxRpDF7vq9W36bEHfjs46aP63pQ3qKZTOwxb6BcFZV2m/Sl5uI94Bv1wu37iROPsUjcUfBhiYQMO6/7gTUVHbXGFcS8xO3MmPa2iGwbG2O2UbxcIF7echBuf83Xp/fX2HUlqnHRbW73qiqfGnnnHM8idEzkt13wkf3H7sMcZo/pY7XBbX6Tpjlxfni4FjUqI1YMpBLudg6C/7daWb5laCQ/pSxatIH/cW+Mkt24Z7F2e+OaRirtf1Win5S9SbXi9CR6RPA7SY0Bht4f7LiTYEXYzRftjDTBkAh7mjx+K/Ox4NhZO+GnT8A842vX2V5yBrviwRvY24YAWvDJ4ztlk6ofiM4tctI38AB5IktbPr75t3+AC00bC2L2xT+A3euafzD181cGAfPM5EzEPGdb5ZrUEii1L3zxGbOG7x1xmGz+qZetWyZb9XJec87UHOHKGTOQqJ8fY4fNBkmffKukT//5xYTJyG8zfxRPXYZKiJxD1/kz05bZlVmkUTrJOh9dPbdsyZpRR7q/6/IWZfTaV9jzE/76LxH79zChF0Plw+52Vp8lypPaxI/mB5R3ffc0MzGRuS7QuA6sXAwsi9rF7fxSRLmZI8G1fezVip/ZLAPHlviPwhnqJrvPlV+CMrZqIKA/SE2wS3QWcs+X6JvopKYPrgt9iU3WiDPXLm6yVdYAQUhogdQai88RyjZ02LEJhwM8oOt4dJckZ8jOjDEC3ylOcmQjacFDM1F0nBrfns77x85vka7VCn5RLmbH65X+QRfD7Lxa+kRdbwcR25PuAmQE4FhfFyjTbJWrxqm7+8w5SbbOJUk8xVMRZfjGE5j125MZ7bTX6M9uJM83kujRhjijV7JfJ39XRTPEz/T3BIn6RXEabHPQwKFn36PR0KjMbjxpuCHVAesz2LMzW/uHNIKsCNXBWTv+QUjwBFWzhaYtOR7wXgrRy96sp2IiJ4Bw8oKrbl0asSyG75FqFA3lteLQhvRQZ5I/KitLL3mc3TdtU+OhwnLvuS+hWdd3ScrOAAA3vQo0GVjoKhkC42kQJr88hD2hBhlZJukOH9DsY8IEb6PMDCVbItD29XkaHtwy7GHxeIojkmb1pomLiC4cM2eq/HhhzOVcw+n+F1Lj8mYhRDkOO0IYbeDvOseL5ZYQ0cx49MfVkTV8sJ/aDCHdC3jwZWLKQY01d1E1Oyge7ZJRZRhPl5D62HJsZe2ED7TQ/jT2xbSWFkUnKrZS7SeNqA0jUHLw9RfznGwkxKCyJaYT6NxYn2rg1+6WfjcUVjExqmvC0luRe2HWD+l46Nl6u3UsenYpu1JE+s0B5K5EvTy14l9rkUOuSDmXAo0O8zE9sy+zrwdYKOITXZfuK+mP7WmrEK9c3aX7fPKqcyCnx8gPYxxTmbWP+muFxEWVK4cvsFojNzBObPHUwchy46gWFf9RdfOykaNyzbZ/qWAiv/Ukedgqs7beLyrekj95ron04wonhuz7toK/K3j/YfI/SOdFxAqi8tSysb06yo7s3iXrdLClBfR/0XMorPjw/xh56J76nHx7QtO30qGXeqE4dl7WaldkjhWcwYTpO7U11pw3OuVMghqgvCmceoiyE6jw7Qe78slXxYFyd5s3Bnb1/dT3yhktzvwM4iNI4fjzF620bfLMY4LmTgtsuisauoHag60+Pl3MQXjf6hGJ/5dpCXj2LCFsybV03Xyiy66OmwQtT/TbxU67G61JEDqH263ASIo4U6qKFJ5iGk4CgliGn/zMemddq7K8QN/C4gfxHGz/JRy9OO63Zk+s2HVUcmirlrP1UQToPIWyYUhQcFWsXd9weHJTuWdU/44K2VfLmKVz6Zd4+mabgUNZAbXGgFzat++36y9TRF9ycaMPnkBh193xul3wOHuvV9gUlyQgiFwtHR9Wm7JxNnKPk+G5Ffn7jgiRllBuGD38bpCRxqO6zEeYJkedtCQ0WJD7B3r4nuqRXLzx7YEzzIYYW1MnZ7ymKvTqEwJ4dQusqYmFacPx2id3apgwgrDWsTNZ4IVR60hVcic4KLfZHFSJ1q8rTvnFrAq2NbZh3H0duecppBK7/SNqLfy53i8rTvOTnASpMuacJ1Q744rwDZsnrbQwX5csnyDefkDG4T7nTIGoVMv6L6K8OtYn370k63ZGLM3prgxkmbzNYpOQwpc5WV26+/jWh7Rl+b1/mq51Uw/zx2TvZJgy0z/LSYGT9vqNN/qG7bJ7o/6igDe2g81wtDH0YKe1+Zbc2gCsWVPXlnUER2Mm3BnJpjhTdRMpPW5A556h+iQYGil/gMeOX2tZtM3unYlGmHvrLmnGJSZDNX5qSiPdOG9u4doFUpegNF0KhXimur4vzR2KpOWRpZC+SMJLkffEpJcKeB7t9UYn+7pD7hxZP6oA8bbgcXXU38+dQo0vDyGJ2TxrlxXekm2RT0M5Y9eY809CM0qe09sYOkM1Z7qD1qoXcy9Wh37UTS6/jjSJ2SpQ/DKDn5Jv3kRq4KyN9VZGHQXG9UHdjY9RIj1p03Srfzn2P4PyeQrv1YrjeLgOmU6SS52eQlNUFgZxD4PETv5BLR4hLTjOZvjOHbHtqP9nAtNsY7A8AuCjLH8D+u4mAX5RSZBIEfG4FrIH+RX/NnnAWyLuqkYXRJog1ohMlr56QJ+7Fcbx4BIX+bx1RS3D0EyNaqyG6SpSUtXJVgxvy+/L06Al9Hy3eCrp6LpCAI/OsRuAbyB2ij1KzNHxvUsxH6/NNcx0Eq3N6JMDlqZw2K//XVtQUAjDNFuZ3nFuSQLASBa0PAeDw/6OPScprIZhfj8reWE84h+4b82jAC32mXp8i8Z8N5SXKCwL8cgWshf/rQ9SA5TF4bgQaovRmg97CFwWkf3ZM5otNWzvNX1wcZpDfQOraNsPU1nfbRqXLQ9r+8YtcrfoTpa3LKcZ0v1ktNvhIEdhMB8lg1DhF3amg+72FwymMNbfl20HrYQEfZSe1mCW6dVJ9H6P5W3a7q1pVfCiQIbBmB6yF/5PX/cYg2ue6TR6plcEyBP8M7LYy/Rhj9zxeHjAJ0ljibVHQh3zKOP352XkPz6nHXfnwApAT/NgQWF0P0nh6gdocdPchztYn28QrHLf7bQJPyCgKCwK1A4NrI361ARwohCAgCgoAgIAgIAoLALUNAyN8tq1ApjiAgCAgCgoAgIAgIAmUICPkrQ0eeCQKCgCAgCAgCgoAgcMsQEPJ3yypUiiMICAKCgCAgCAgCgkAZAkL+ytCRZ4KAICAICAKCgCAgCNwyBIT83bIKleIIAoKAICAICAKCgCBQhoCQvzJ05JkgIAgIAoKAICAICAK3DAEhf7esQqU4goAgIAgIAoKAICAIlCEg5K8MHXkmCAgCgoAgIAgIAoLALUNAyN8tq1ApjiAgCAgCgoAgIAgIAmUICPkrQ0eeCQKCgCAgCAgCgoAgcMsQEPJ3yypUiiMICAKCgCAgCAgCgkAZAkL+ytCRZ4KAICAICAKCgCAgCNwyBIT83bIKleIIAoKAICAICAKCgCBQhoCQvzJ05JkgIAgIAoKAICAICAK3DAEhf7esQqU4goAgIAgIAoKAICAIlCEg5K8MHXkmCAgCgoAgIAgIAoLALUNAyN8tq1ApjiAgCAgCgoAgIAgIAmUICPkrQ0eeCQKCgCAgCAgCgoAgcMsQEPJ3yypUiiMICAKCgCAgCAgCgkAZAkL+ytCRZ4KAICAICAKCgCAgCNwyBIT83bIKleIIAoKAICAICAKCgCBQhoCQvzJ05JkgIAgIAoKAICAICAK3DAEhf7esQqU4goAgIAgIAoKAICAIlCEg5K8MHXkmCAgCgoAgIAgIAoLALUNAyN8tq1ApjiAgCAgCgoAgIAgIAmUICPkrQ0eeCQKCgCAgCAgCgoAgcMsQEPJ3yypUiiMICAKCgCAgCAgCgkAZAkL+ytCRZ4KAICAICAKCgCAgCNwyBP5V5C/+MsXw6BB3Hw+xqFiRi9Mm9oI9NE+rflExYd9r3yNcnvVw+FOI7oXvhdtxL/o4Ru/XuwiPprejQFKK5QgsJug9qWEvCBCEd3F4NMLlt+WfyRsVEIgXmJ50cfjTIYZfKrxPr3wZoXknwN6TUeWxsFLK15VupczlJUFAEKiKQDn5+zLEAQ3Wlf7V0H0fV813zfcWGD2uKg+/V8fgU4zLP/vo/a+BkMryaPfIX/zPEN0XTdQM1reS/MWXGB510Lxn6kbI35r94Mf6LL7oonavi2kE4Pscw8ehGlPCp2PQra38F11idNRE7Y5pe3dqaBIBLREgej9A68GeknXvXhO984IF4LdLDJ83FLENf2qg+3dJoqawszd1HP5ZkN4KgMT/jNB/3UYjpHId3HryNz8jkkvtJ8Tdh20M/1mOdQ7OxQT9pw3cVZgFoDprvZ1g8T33pvdG/L6rxulbOUZ7Syw3byMC5eTv0wD1ex2MPxeQum9TdM1EXnsz2wI+CwwfhTj8fYbI6qiLkwNNUB1SF30YonUvSLVo0RitFcnfFgplZRFj8lxPTrd5YIn/buv6EvJn1f1tvZyhdy9A/fd5WkAaN+6H2Hu2JfJnxqnaixEuvxoxvl1i9KyGgEipRwM5PzlEGNTQPdfkIv40xGEY4vDEKodKihakIcLHQ8y/A9F5B/tBDb0PaXHdKyLDjZdTFIyq7uvZ358GGOR2BSKMn65I/rKp/gC/YkyPagjCQww/aeSicyJhNXQvVkDys6nHt1MszGfx1yl6D00dLkPCmvNu8xi9DAZ5/uMjUE7+LrronBd1rBjTl/t6En8wgDskXg80Cwxfj3LagiLyRzIQ0Ug76RTdnSZ/wPTo9pM/XHSF/F1PB9m9VD/0sB8EODi5upZr3cJNj0IEP/eQW57GE7SDAPvuwvVDT2l2GjZhBRCdNhEQ2bB3OC66ajeh846lm6H3c4CgSKv5bYrOQz/h5BTK/s5/b1jjWfqmHjdW0Pyln/4QV9FfLYRBiPbf2flo9npfEcJRpe1uUh4ECJ7k5xCQoiMI0PqrTJNIi/MaDh7V1fiVzis/BIQipCCQQaCU/MV/DzEu6AtEqtQWKm01fM6keY0/5hid5mlmGfnDYoRRslIW8neNlVM9aSF/1bH6wd9c/HmoJsqbI39mwv/P0LNAnWP4H5eokRaNthXJXMQBn3cOrMXu/HciAvYYaPILushbtFLa9Sx5dLIo/fllhMPQ2smwXr7d5E9rj4OgjUmW+wFmcRG+mFTQpJrx/2W+ZoApOr6FgIUxteX60RSXZqdJyJ8Fjlz+cAiUkr/C0phBiOwu8tsghV9d24NS8pfJVchfBo6b+iHk76aQ33q+3DdvjvwR4SJtumd78BuZgYRZbc/XEZrK7tZH3uYY/EJpNRJimCddTP4OMXKUnbSVfPhHfvFaqVK+XWJgbCV9pCMvR6VUf4yXDMHz2mob7W0QdvLEMFc6o5WlrWNXYfGxj3rZdj1tF9/X2mNu0756yGUpNwSBHUVgDfJnGWyTncuVC7bA6MkegjtNjNwOWTFt7ozewSGTRpb8xR+HaLNB94M2xm7+MXnf9pXRd37yijB9zQbkIe7eb6L9uoX2Cttb0T8jdC0PyMbzIfrPaHLxr+4X5z0079/VGlevx2SMxcUQ3V/v4lDJQTIeasPm8C4ofa+HZUQG6weJMfzegxb67xyV79dLjI/bqUehMXJXRtN3Gmj/VdASMob2xkj7t5Z321fVx0NTvjs1HDztoPO459GgZCo1/fF9gcnbFhrKIDxAUGTUr7wje6pe9QBu1SXh+nZWQYtANgWOlyXZDpEXc6CNyNsnl/50qsjJBNk4ACXG/Ln7tgMTEw/dhgLHpnJp+4kXmJ3q9q5w+TxG+36I4E4DPXurM0W88Crpk4n8RibXKaEKFpTLFWQjGzvaeg5CKge360jZkNWejTNjWGKP6tgP64KmNrm8PTh7Q6YvtpaQ68Ahj0Qe1h0vv5h6cLG0ZMyQP8sBheou3zdjkMc9OT3sWWnoMlp9gZwqVhrXriddrV0N4LZnLS8T8v1SO0v9LpC0y3utdL5RTkh7aLwp6vdzDP6TEkZOQ8gfoyp/f0QEViZ/2hCaBtJDVLOzWAaLIWRBsLb3G3fGVcjf7O8uWkdDjM/HGL4wXsDWdg6+TjE6HaJjHFpc8jd7U9NG3mYbIvowUFsy7ntFpZ//SSFkamidzjVBiBcYv6hpUpQjf9rYufZshLnKL8b8tKXsksL7fW3L9O0S4z8G6DzUnpQHJzOMn9Vw+LyH3ssm6sazLbjn2D7RpEST+4WZFI3xcxDsoXVm7n0cY3TSTT0K343RftrG4HSCySnfT7UhSZk/63ASttyLs07i0ZwZzL+O0QpTA3ua7DUeziSaJO5cfJ2gcy9E49XEGHLHWJwb2eyFBdXryUA5AimSfTZD/2kLvZMxJmd8PyyxddX5xv+MMTzupJh8GKN17xDt1z10/ls3JhEBco5QVeUkG7MPfeNtX0f/o1Xer5PE0ap1ymSGn8cYPwtQO5patrEV2s+XCYYZXKboPW2jbdpTzi6Os1vyl/umt19UxeLKssW4/J0cOIiAhmi8GWP0ooHm8aWFkS4Iyxs8928japJlObAYm7/UFs1olzKkaobe/auPlyybj3Qk5O/9BN2nXQzPJhifcPu0+2aE6ekIQx5rMnIC649r15VuagedcRpK2h2T7SBnD5i8krmIMOGy0/h7MsbgSQOdM0dNm3xDfSfrmV1WD8lnciEI7DgCq5G/zxz6xdkq8RYywuy4hYYJrUChErqnfk1I9G6A3rE9WXkTLLzJnbEy+btzgP4H23iEV4+erZo/tCdxdvKaoRsGaJ3ZaWjnEq1xKxRVPzA4ugblgJk4HPKnjJ1zBuupFqJxnGrdWHOx/6ib1WQqLzetfUnf17Y0TZdAGOPn7FZKZLbP9tSkaZecV+ZZjObauNom1AYWZaRNE7GlmVK2Yf/Xx2UGujkGD6qQP+1xGXjySmxTHdKrNTYB6i8nGQLA+NmyZUTK/OA62MfBUVaDlCySrC1CYA05yaA9yJNR7XwQIK1LFowwy26BrdJ+uC73n46MRizC/GJWOQwGS8F/uW9m2wY9XR2Lq8rGCyYVuupR3xvmhcldUf3nn+udEOXtS4T9jGyh7S1mIg8NdN6lPSZ63zfhSvaKtfEMoPWXsSwmf3s4cLTWjFkurAyP5Rnyd8VxjWTdeLopucu3Id2OlBPHSk5FEWZvzIKf7PyejwvbN2mND46yntll9WBVl1wKAjuNwArkjyYVTR72l4YpiDF7RWEUOhibBZV2y78eG0HujJXJX2bA0/WTrJwdrzFOOzvw8OrenUCmGC6N3RVj8oK0c37PvOlLjXE6wOvBL3yV81VMtzAeW4FazbZgVl5dxvlxQ2sWufxKa5EnvGT8rLyigxDd92n7LcKIvXcPLHum+LyjNC0+OfCuk9v2JYISBPto/5VdgS9Ohsu3fY1NkF8zwIQ6S6C4XlOcTTk5tqXXKDzFgq8KMUHaXxIM1pCTvBAbRJRd71G2TXMXBR96aLy228pq7YdxSb1XuaTr/eX0Egw4mTWw4LTWky3C7G0Trdc9FdxYEcB7rewCCamWqTr5A2Bts4Y/HaJnmUzE7zpo2ORBeRKHaJNWXW03VgwxQnS5xNGgsB0WjQfcznksUPVylXHNVOzG070G8vd9jtHzJrqvO8mOSPiwh5kb8od2I+7nPbPL6oGbt/wVBHYdgYrkz5A5moQK4mJlCmqMcLMDvtGSuJNV5sP1fnBnvDr5s213tCycdrYsgD75g7a/62i+HWPu7r4VFYUNlL3egOnkk5ISJmKaFKpJS21f2b8t7VjRYE/ysEbP5M1l86ep07fLvWyCSSdM1oj5bReZLKbvk00XbY3pLeu9R10ML7IksAhOus/aDVtW+30tdwCbQHPZU5zNF97Jy04te12IiSUXl3MdOZGQyCZGHKOO0j5uofWMyLxNamlhcZA4I2hJV2s/hbhki135F6fn1s06WHBauTpbKs1cmUAkixNyniA7Y+pHjvH/3Gj6uc7cpLktJWm5L9i/yTHOOAno25HWnofdJOyM1jRXO9GnrPyF7dCMB7mFUUE7X3tc43JfQ7q8IHbbkM4yJYeVFgXfZug9rKWaWDI9MONOdm4jja7bl0yOJSScYZC/gsCuI1CJ/KkI/Ypw2NsZJUUzA4A7SOsByiIqJUms8ogHxauTvzxZ4bR9A0/8eYzeIzOJBHs4eF0hSjwPjlXJn3k/N3gXAVRG/jhUhclb14cnfEJB2ssmmHTCTAdktw2opI2M6fucIZkKtNPV+P1qEfy1XMWx5LgO7fz4Xk4+rp+MRoTly/8txIS2AJU2M93eXkdOyjG3xRtP0KEAyaz947hl9JuvWdQV208hLpzein85Pbf/rIMFp5WrsyUyKUKX8wbVhJAIoH3SSLLtb2vTk/TTdp3a+CUPnQsiD6mTgH5oiLjdtsw2aZX+XVb+wnZY1NdK2vla4xqX/hrS5YWCvXjj7NJdivzCPX2Hr0xsWtc8RBFCvfBMbHQZt9xC21505xfInJP8FQR2HYHl5M+KaF57VeQN5RTTDADZQdpog+yBz/ls3Z88KG6b/LG80aeUBLLtDz/L/eXBMeh4tzN5Ukyx0/GnvIFJc4kDrFVzJ1v1KpO/X3RQbq3lqOYlR99Xn2DSSdK7GueB1bL5yxTl+wLThAQuX3DMXumBOyjYquX2YWtr+F6Ks5GA66diOy3ExCJ/PLGvI6eSisgeOewYrfn8+NB4NrIJgTbonx8feBxVVms/hbhkKqj6D07PbY/rYMFp5eqsVBzeyvQd6chb89YCiOvfu0PBJgR+kw1bjPkfh54wWB7yx/kV9QUr0bLyF7bDor7G+Za085XGNZbzOtI1TjU50wfKk8e0sIJSgd/1Yf1tgjb1MTM2gsb01z3vv85jfbhB46l+PmBnOcZA/goCPwACS8ifdYqHYzCfL1uMyYk5rskMAHqQjhFFEeKv1Lmc6Pj5RNa6w4Pi9sjfFAMn+j8QYfycSMgyMjVVziJF7+XJH09QRSQoxvR3Ns5PyR8TjgygZtt339iEsV1eIWH9PMTgPE1hlQlGnapAxtQZ+zOTlmdCWpwM8nG6Pvb99m6pSOqKy8HkyHkM7dxhezyW2E9VmLzs9DUmfq2D1lik7WEdOTkv7SQTovPXGJ3HFpExE2P4vIvOA8eTW328WvvhvrQawWIp8385PZf8rYMFp7WabB7CZYmpF0AtK5h9hNET0uh4CB63DVe7aqVHl3T2a9210VTveGQxmr8q3tRl5V+lbypRuCwZ8neVcc2AcC3pGtLtI3im/XvHGSNS8odl85E/WtySvbWX9CcpqIuyesi+Kb8Egd1FoJT8JZ6SGY/FgsJ8GqDFhMh0MhqkY+X9ptXjtaOsZyWntE1vX4rinqzuWIBEq1V125cIXBsTx0A4PtNOC2XnelKWFE5B2Rs9ysdJZPsWe4JT3prKPqmO9skMETsOfptj8qqBA8vblzV/vlAVOl97UuPI+QH2HvUwSc5wjqHORb6f9RrVstnfGwA9ZI4i79fUlol9+oF53+PwQQNq3vv5Ev3/8zg7WPWmL5nghJ5wQfqZvbVH37Btl42zSosniMykmMswucFkPb8NaLDNpLO6nElG7PiRsfGjp6yN8nn+6q9XaT88seXLs8Dov3cRhnVP3LhEytwFp+eSv9SWsXqdcVp52XLZWjcic2JH1mZSv2A0py6Z4+Pd7H6VOFwsWcDSTsnDjve8YLVApIDTFsFgm7/iYzTTouTK/3WRnE+r+6ZnEeLrm5Skt51fbVxTkl5TuroN2/atlBt5UvuPd4s/jtB/O3Limpo+aeGfoqv7ZhUSyfWQGzvSxORKENh5BIrJX3KKRwB7uyxfIkMU7gVItvgs8kfvx6T5i+cYPAoQut5TrIpfN86f8ZjTTgsHGLiBmi2B9aHrelWfee/7JfrGkzlDpBJtXoD9TEgQvYIP73cwZsIU6Qj8hVo0Sw7QBGGMjMOHXYw/LhBFc0zetNAwcQXDh230XnP4kNQ+SZdTk2llr+QGjuXBXsWwmiH6rmoAOr5e3ts6Ju9QjgGYsW9xNI3xFF06s5TOv3RCw1z+xl7EA3W4vS5qjOkrE+8ubKB7dolFFGF+3kProSG/YQPtNz2MP7EmjsLIpORWy+zIYeNoX3Mom7CuYnYpfkwBhF81ELpOSt8XGCrtToC6ExpDh+qgCbqDSQUnHiZ/wb0Whh/MBxyj0HEmUOKuIqddPhiNlEcDr724feSGE6jYfr4vMFJHm5Ed3Cgb/oInddVGbE0Z5+H5a/q8arOP7LZh3l0FizLZPFlnbpl8qK9NvpiV0/cIs5MWar46osXBySHC8BCDf3SdRhfUT/L9J5MPkZGXdPYur86yT9Uvx9uXxsRc7E3PZ3SLbUipHKOzIbpHxss/mqBj+mZ2/AL8fZND0rjt/IrjGsnIi/1M/7l6upro2REkONapb3xIF0SuRpXt12vPhpixA1VcME4U1IOQvwJg5PYPhUAB+YswfmbsqDKEICUdLgnJnG/pkL8EERPeofbWjua2/gkfycSbkzFv/+F992iahE/IlIe0NZnJjsvN6U7R/amO+i91fXoG5U+nSVRx+GAwiJgkJ4Tsofakh8mC7OpC3P21h/FHl3lEuDztonlPO5iEPzXQeuuJjWjI38FvYwyfN4x85mQNM5GxCMnfxURF+1endQQkSxejj9YElhBKxoH+EhZmGyuDf1YzqE6VMDJTrMfe+ULZJaqQGGeXhpwS+Wui9ksddfMuebHefVjN4SMpR+Y0EX3KRuut44TjrVeSObVTtNvCstW9blcH6J8N0ebTSfg0FbcKWdAqcvK71l/aKnWJt3r8dYTDy9hQAAADrklEQVTW0rNNl7QfLy62JnyG/v0Q4f1DHNzLhgCyREwueYK0sVTXGU0osYVLjI74pJxV6syWLcm2+MLJp/D0FysFaruH6rQY3RYHyekg1kvWpTr79Y0dZsd6aF1SnD/dj6mv9TEraifWN/pyjvH/aEEV4u5/B1qrVdQ3vfW5rJ1fZVwr6z9XSdcGIcLlSdvEjtVjZrL4tl9DjNnrutJSe0+myYx3BW0uk172B7ftZWND9iv5JQjsFgIF5O+KQpqBJ985jPG5OwFcMTv53EKAyd8Kx8xZX8vliggw+Rs68SFXTOaHen360rOV/0OVQIQVBAQBQeDfjcDWyZ8KHuwNo/DvroiNlV7I38agrJLQv4/8zdB7rL3Fq+Aj7wgCgoAgIAjsHgLbJX/GaD1/JNXuAfPDSmScKcrtNH/Y0u2c4IkTTImt6c4JvbZAEaav2hj+K8q6NkjyoSAgCAgCO4/AtZK/jIH11xkGj8lmqJ9Et995dH44ASNMX9eNJ7HHwP6HK8+OCxxN0ftF20G6hvY7Lvnq4kVTDMh7srJ92upZyBeCgCAgCAgC20HgWslf588per/eVWe8JgbWTniU7RTzX5CL18B7RaP4fwFMmyoiG31nHRrYIWhTuUg6goAgIAgIAoLA5hG4VvKXd/jYfAEkRUFAEBAEBAFBQBAQBASB6ghcD/kzIV2E/FWvCHlTEBAEBAFBQBAQBASBbSBwPeRPeZwujwW2jQJKHoKAICAICAKCgCAgCAgCKQLXQv60PdQhRos0I7kSBAQBQUAQEAQEAUFAELh5BK6F/N18sUQCQUAQEAQEAUFAEBAEBAEfAkL+fKjIPUFAEBAEBAFBQBAQBG4pAkL+bmnFSrEEAUFAEBAEBAFBQBDwISDkz4eK3BMEBAFBQBAQBAQBQeCWIiDk75ZWrBRLEBAEBAFBQBAQBAQBHwJC/nyoyD1BQBAQBAQBQUAQEARuKQJC/m5pxUqxBAFBQBAQBAQBQUAQ8CEg5M+HitwTBAQBQUAQEAQEAUHgliIg5O+WVqwUSxAQBAQBQUAQEAQEAR8CQv58qMg9QUAQEAQEAUFAEBAEbikCQv5uacVKsQQBQUAQEAQEAUFAEPAhIOTPh4rcEwQEAUFAEBAEBAFB4JYiIOTvllasFEsQEAQEAUFAEBAEBAEfAkL+fKjIPUFAEBAEBAFBQBAQBG4pAkL+bmnFSrEEAUFAEBAEBAFBQBDwISDkz4eK3BMEBAFBQBAQBAQBQeCWIvD/A0/khUGgbTWDAAAAAElFTkSuQmCC;" vertex="1" parent="1">
          <mxGeometry x="479.99999999999994" y="490" width="240.87" height="170" as="geometry" />
        </mxCell>
      </root>
    </mxGraphModel>
  </diagram>
</mxfile>
